<?xml version="1.0" encoding="utf-8"?>
<!-- Generator: Adobe Illustrator 18.0.0, SVG Export Plug-In . SVG Version: 6.00 Build 0)  -->
<!DOCTYPE svg PUBLIC "-//W3C//DTD SVG 1.1//EN" "http://www.w3.org/Graphics/SVG/1.1/DTD/svg11.dtd">
<svg version="1.1" xmlns="http://www.w3.org/2000/svg" xmlns:xlink="http://www.w3.org/1999/xlink" x="0px" y="0px"
	 viewBox="0 0 648 648" enable-background="new 0 0 648 648" xml:space="preserve">
<g id="Layer_1">
</g>
<g id="Layer_2">
		<path fill="#18325B" d="M71,193.6H35.7v-6.2h110.2v6.2h-35.3v260.7h35.3v6.2H35.7v-6.2H71V193.6z"/>
		<path fill="#18325B" d="M316.6,372.1h-83L217.7,421c-2.7,7.8-5.8,17.1-5.8,23.7c0,5.4,4.7,9.7,17.1,9.7h20.2v6.2h-79.9v-6.2h12.4
			c12,0,17.1-1.2,24.4-22.9l83.4-250.2h4.3L388,454.4h32.2v6.2H306.5v-6.2h38L316.6,372.1z M274.7,248.3H274l-38,117.6h78.8
			L274.7,248.3z"/>
		<path fill="#18325B" d="M438.5,364.7h6.2c0,65.2,38.4,95.8,85,95.8c37.2,0,64-23.7,64-58.6c0-40.3-20.9-52.4-65.6-59.4
			c-60.9-9.7-89.6-19.8-89.6-85c0-44.2,29.1-76.4,72.5-76.4c40,0,55.1,23.7,68.3,23.7c8.9,0,10.1-9.7,11.3-14.7h6.2v81.5h-6.2
			c-3.5-44.2-27.5-84.2-79.5-84.2c-33,0-56.3,21.7-56.3,57.4c0,34.9,13.2,42.7,77.6,54.3c56.6,10.1,79.9,28.3,79.9,78.8
			c0,50.8-27.9,88.8-84.2,88.8c-38.8,0-59.4-20.2-73.7-20.2c-9.3,0-9.7,9.7-9.7,16.3h-6.2V364.7z"/>
</g>
</svg>
