<?xml version="1.0" encoding="utf-8"?>
<!-- Generator: Adobe Illustrator 27.1.1, SVG Export Plug-In . SVG Version: 6.00 Build 0)  -->
<svg version="1.1" id="Ebene_1" xmlns="http://www.w3.org/2000/svg" xmlns:xlink="http://www.w3.org/1999/xlink" x="0px" y="0px"
	 viewBox="0 0 370.9 92.6" style="enable-background:new 0 0 370.9 92.6;" xml:space="preserve">
<style type="text/css">
	.st0{clip-path:url(#SVGID_00000163758439748500963970000011073311388197613996_);}
	.st1{fill:#A17632;}
	.st2{fill:#017B35;}
	.st3{fill:#403F3D;}
</style>
<g>
	<defs>
		<rect id="SVGID_1_" x="-27" y="-23.3" width="424.8" height="139.3"/>
	</defs>
	<clipPath id="SVGID_00000102541947748489655140000008566751093951247248_">
		<use xlink:href="#SVGID_1_"  style="overflow:visible;"/>
	</clipPath>
	<g style="clip-path:url(#SVGID_00000102541947748489655140000008566751093951247248_);">
		<path class="st1" d="M330.5,38.1c0.8-0.7,2-1,3.6-1c0.6,0,1.1,0,1.5,0.1c0.4,0.1,1.6,0.3,3.6,0.7c3.1,0.6,6.1,0.9,9.1,0.9
			c5.5,0,10-0.9,13.5-2.8c3.1-1.6,4.6-3.6,4.6-6c0-2-1.1-3.8-3.2-5.2c-2.1-1.5-5.3-2.7-9.6-3.7l-7.2-1.7c-3.3-0.8-5.8-1.6-7.4-2.5
			c-1.6-0.9-2.4-1.9-2.4-3.1c0-1.4,0.9-2.5,2.7-3.5c1.8-0.9,3.9-1.4,6.5-1.4c1.8,0,3.6,0.2,5.5,0.7c1.9,0.5,3.5,1.2,4.9,2.1
			c1,0.6,1.8,1.3,2.4,1.9c0.6,0.7,1.1,1.6,1.6,2.7h1.4l-0.7-7.9h-1.4c-0.8,0.7-1.6,1-2.4,1c-0.5,0-1.2-0.1-1.9-0.2l-2.3-0.5
			c-2-0.4-4.1-0.6-6.4-0.6c-5.1,0-9.3,0.9-12.4,2.6c-2.7,1.5-4.1,3.3-4.1,5.4c0,1.9,1.4,3.7,4,5.1c1.9,1,5.7,2.3,11.3,3.9
			c3.2,0.9,5.5,1.6,6.9,2c1.4,0.5,2.5,1,3.4,1.6c1.6,1.1,2.4,2.4,2.4,3.8c0,1.8-1.1,3.2-3.4,4.1c-2.1,0.9-4.5,1.3-7.4,1.3
			c-4.6,0-8.7-1.3-12.1-3.9c-1.9-1.4-3.5-3.4-4.7-5.8h-1.1v9.8L330.5,38.1L330.5,38.1z M321.2,37.5v-0.7c-2-0.1-3.6-0.2-4.7-0.5
			c-1.1-0.3-2-0.8-2.9-1.4c-0.7-0.6-1.2-1.4-1.5-2.3c-0.2-1-0.4-2.6-0.4-5V8.6h-19.9v0.8c3.4,0.3,5.8,0.8,7,1.4
			c1,0.5,1.7,1.1,2.1,1.8s0.5,1.9,0.5,3.4l0.1,2.6v6.8c0,2.7-0.2,4.6-0.6,5.8c-0.4,1.2-1.3,2.2-2.6,3.1c-1.3,0.9-3,1.6-5.2,2.1
			c-2.2,0.5-4.6,0.8-7.1,0.8c-2.3,0-4.4-0.2-6.2-0.7c-1.9-0.5-3.3-1.1-4.2-1.8c-0.9-0.8-1.5-1.7-1.9-2.9c-0.3-1.2-0.5-3-0.5-5.5V8.6
			h-19.9v0.8c3.4,0.3,5.7,0.8,7,1.4c1,0.5,1.7,1.1,2,1.8s0.5,1.9,0.5,3.4l0.1,2.6v12.1c0,2.5,1.7,4.5,5,5.9c3.4,1.4,8,2.1,13.6,2.1
			c7.7,0,14.4-1.4,20-4.3c0,1.5,0.3,2.9,0.9,4.3L321.2,37.5L321.2,37.5z M235.4-0.4h-2.5l-0.7,1.1c-0.8,1.3-1.7,2.4-2.6,3.3
			c-0.9,0.8-2.1,1.7-3.6,2.5c-2.5,1.4-5.2,2.3-8.1,2.8V10h7.2v21c0,2,0.2,3.4,0.6,4.2c0.4,0.8,1.3,1.4,2.6,2
			c2.4,1.1,6.3,1.6,11.6,1.6c4,0,7.4-0.3,10-1s4.8-1.7,6.3-3.1l-1-0.5c-1.6,1.1-3.1,1.9-4.5,2.3c-1.4,0.4-3,0.6-5.1,0.6
			c-1.6,0-3.1-0.2-4.5-0.5c-1.4-0.3-2.5-0.8-3.4-1.3c-1.6-1-2.4-2.8-2.4-5.2V9.9h17.2V8.6h-17.2L235.4-0.4L235.4-0.4z"/>
		<path class="st2" d="M180.9,31.4c0.5-6.5,2-11.9,4.5-16.1c2.5-4.3,5.5-6.4,8.8-6.4c2,0,3.9,0.8,5.6,2.5s3.2,3.9,4.2,6.7
			c1.2,3.1,1.9,7.6,2.2,13.4L180.9,31.4L180.9,31.4z M215.1,34.8c0-7.3-1.4-13.4-4.3-18.2c-1.9-3.1-4.1-5.5-6.8-7.2
			c-2.7-1.6-5.6-2.5-8.7-2.5c-5.9,0-11.1,2.7-15.8,8.1c-6.3,7.4-9.5,17.6-9.5,30.6c0,9.5,1.7,17.6,5,24.1c2.4,4.7,5.3,8.2,8.8,10.4
			c3.5,2.3,7.6,3.4,12.4,3.4c5.6,0,10.1-1.7,13.4-5.2c3.4-3.4,5.6-8.5,6.6-15.3l-1.2-0.6c-1,4.4-2.2,7.7-3.6,9.7
			c-1.3,1.8-2.8,3.3-4.7,4.3c-1.9,1-3.9,1.6-6,1.6c-2.9,0-5.6-0.9-8.2-2.8c-2.6-1.8-4.8-4.4-6.6-7.6c-1.7-3.2-3.1-7.2-4.1-12
			s-1.5-9.7-1.5-14.8c0-1.3,0.1-3.3,0.2-6.2L215.1,34.8L215.1,34.8z"/>
		<path class="st1" d="M122.8,9.4c1.3,0.1,2.3,0.3,2.9,0.4c0.7,0.2,1.3,0.5,1.8,0.8c1,0.7,2.6,2.7,4.9,6l14.8,21.5h3.2l13.6-20.5
			c2.2-3.3,4.1-5.5,5.8-6.5c1.3-0.8,3.1-1.4,5.3-1.7V8.6H159v0.8c1.7,0.2,2.9,0.5,3.5,0.7c1.2,0.5,1.8,1.4,1.8,2.5
			c0,1.1-0.7,2.7-2.1,4.9l-9.6,14.8l-9.5-14.3c-1.1-1.6-1.8-2.8-2.2-3.6c-0.4-0.8-0.6-1.6-0.6-2.2c0-1,0.6-1.8,1.9-2.2
			c0.6-0.2,1.8-0.5,3.5-0.7V8.7h-22.9L122.8,9.4L122.8,9.4z M83.5,13c3.2-2.8,7.1-4.1,11.5-4.1c4.7,0,8.6,1.3,11.9,3.9
			c1.7,1.4,3,3,4,5c1,1.9,1.5,3.8,1.5,5.7s-0.5,3.7-1.4,5.7c-0.9,2-2.2,3.6-3.7,4.9c-1.5,1.2-3.2,2.2-5.2,2.9c-2,0.7-4.1,1-6.2,1
			c-5,0-9.2-1.6-12.7-4.7c-3.1-2.8-4.6-6.2-4.6-10.2S80.3,15.7,83.5,13 M69.6,28.8c1.2,1.7,2.8,3.3,5,4.7c5.6,3.6,12.5,5.3,20.9,5.3
			s15.4-1.8,20.9-5.3c4.5-2.9,6.7-6.2,6.7-9.9s-2.4-7.1-7.1-10.1c-5.7-3.6-12.6-5.3-20.5-5.3S80.7,9.9,75,13.5
			c-4.7,2.9-7.1,6.3-7.1,10C67.9,25.3,68.5,27.1,69.6,28.8 M5.1,9.4v0.7c1.8,0.1,3.1,0.2,4.1,0.5s1.8,0.8,2.4,1.4
			c0.7,0.6,1.1,1.4,1.3,2.3c0.2,1,0.3,2.6,0.3,5v8.5c0,2-0.1,3.6-0.3,4.7c-0.2,1.1-0.5,1.9-0.9,2.4c-0.6,0.8-1.5,1.4-2.5,1.7
			c-1,0.3-2.7,0.6-5.1,0.8v0.7h26.1v-0.7c-3-0.3-5-0.8-6.1-1.4c-0.9-0.5-1.5-1.1-1.8-1.8c-0.3-0.7-0.5-1.9-0.5-3.5l-0.1-2.6v-6.8
			c0-2.7,0.2-4.6,0.6-5.8c0.4-1.2,1.2-2.2,2.3-3.1c1.1-0.9,2.6-1.6,4.5-2.1c1.9-0.5,4-0.8,6.2-0.8c2,0,3.9,0.2,5.6,0.7
			c1.7,0.5,3,1.1,3.9,1.9c0.8,0.7,1.4,1.7,1.7,2.8c0.3,1.2,0.4,3,0.4,5.5v7.3c0,2-0.1,3.5-0.3,4.6c-0.2,1.1-0.5,1.9-0.9,2.4
			c-0.6,0.8-1.5,1.4-2.5,1.7c-1,0.3-2.7,0.6-5.1,0.8v0.7h26.1v-0.7c-2.9-0.3-5-0.8-6.1-1.4c-0.9-0.5-1.5-1.1-1.8-1.8
			s-0.5-1.9-0.5-3.5V16c0-2.5-1.5-4.5-4.5-5.8c-3.1-1.4-7.1-2.1-12.2-2.1c-6.7,0-12.5,1.4-17.4,4.3v-0.6c0-1.2-0.3-2.4-0.8-3.8
			L5.1,9.4L5.1,9.4z"/>
	</g>
</g>
<g>
	<path class="st3" d="M16.3,55.8h-5.6l-1,2.3c-0.2,0.6-0.4,1-0.4,1.3c0,0.2,0.1,0.4,0.3,0.6s0.7,0.3,1.4,0.3v0.4H6.4v-0.4
		c0.6-0.1,1-0.2,1.2-0.4c0.4-0.3,0.8-1,1.2-2.1l5.1-12h0.4l5.1,12.1c0.4,1,0.8,1.6,1.1,1.9s0.8,0.4,1.4,0.5v0.4h-5.8v-0.4
		c0.6,0,1-0.1,1.2-0.3s0.3-0.4,0.3-0.6c0-0.3-0.1-0.8-0.4-1.5L16.3,55.8L16.3,55.8z M16,55l-2.5-5.9L11,55C11,55,16,55,16,55z"/>
	<path class="st3" d="M26.3,50.5v2.2c0.8-1.5,1.7-2.2,2.5-2.2c0.4,0,0.7,0.1,1,0.4s0.4,0.5,0.4,0.8c0,0.3-0.1,0.5-0.3,0.7
		s-0.4,0.3-0.7,0.3s-0.5-0.1-0.8-0.4S27.8,52,27.7,52c-0.1,0-0.3,0.1-0.4,0.2c-0.3,0.3-0.7,0.8-1,1.4v4.7c0,0.5,0.1,1,0.2,1.2
		c0.1,0.2,0.3,0.3,0.5,0.5s0.6,0.2,1,0.2v0.4h-5v-0.4c0.5,0,0.9-0.1,1.1-0.2c0.2-0.1,0.3-0.3,0.4-0.6c0-0.1,0-0.5,0-1v-3.8
		c0-1.2,0-1.8-0.1-2.1s-0.1-0.4-0.3-0.5C24,52,23.9,52,23.7,52c-0.2,0-0.5,0.1-0.8,0.2l-0.1-0.4l3-1.2L26.3,50.5L26.3,50.5z"/>
	<path class="st3" d="M39.6,56.9c-0.3,1.3-0.8,2.3-1.6,3c-0.8,0.7-1.6,1.1-2.6,1.1c-1.1,0-2.1-0.5-2.9-1.4c-0.8-0.9-1.2-2.2-1.2-3.8
		s0.5-2.8,1.4-3.8c0.9-1,2-1.4,3.3-1.4c1,0,1.8,0.3,2.4,0.8c0.6,0.5,0.9,1,0.9,1.6c0,0.3-0.1,0.5-0.3,0.7c-0.2,0.2-0.4,0.2-0.7,0.2
		c-0.4,0-0.7-0.1-1-0.4c-0.1-0.2-0.2-0.4-0.2-0.9s-0.2-0.8-0.4-1c-0.2-0.2-0.6-0.3-1-0.3c-0.7,0-1.3,0.3-1.7,0.8
		c-0.6,0.7-0.9,1.6-0.9,2.8s0.3,2.2,0.9,3.1c0.6,0.9,1.3,1.3,2.3,1.3c0.7,0,1.3-0.2,1.9-0.7c0.4-0.3,0.8-0.9,1.2-1.8L39.6,56.9
		L39.6,56.9z"/>
	<path class="st3" d="M44.4,45.4v7.2c0.8-0.9,1.4-1.4,1.9-1.7s0.9-0.4,1.4-0.4c0.6,0,1,0.2,1.4,0.5s0.7,0.8,0.9,1.4
		c0.1,0.5,0.2,1.3,0.2,2.5v3.5c0,0.6,0.1,1.1,0.2,1.3c0.1,0.2,0.2,0.3,0.4,0.4s0.5,0.2,0.9,0.2v0.4h-4.8v-0.4h0.2
		c0.5,0,0.8-0.1,1-0.2s0.3-0.3,0.4-0.6c0-0.1,0-0.4,0-1V55c0-1.1-0.1-1.8-0.2-2.1c-0.1-0.3-0.3-0.6-0.5-0.8
		c-0.2-0.2-0.5-0.2-0.9-0.2s-0.7,0.1-1.1,0.3s-0.8,0.6-1.4,1.1v5.2c0,0.7,0,1.1,0.1,1.3s0.2,0.3,0.4,0.4c0.2,0.1,0.6,0.2,1.1,0.2
		v0.4h-4.9v-0.4c0.4,0,0.8-0.1,1-0.2c0.1-0.1,0.3-0.2,0.3-0.4s0.1-0.6,0.1-1.2v-8.9c0-1.1,0-1.8-0.1-2.1s-0.1-0.4-0.2-0.5
		c-0.1-0.1-0.3-0.1-0.4-0.1c-0.2,0-0.4,0.1-0.7,0.2L41,46.6l2.9-1.2L44.4,45.4L44.4,45.4z"/>
	<path class="st3" d="M58.6,59.2c-1,0.8-1.6,1.2-1.9,1.3c-0.4,0.2-0.8,0.3-1.2,0.3c-0.7,0-1.2-0.2-1.7-0.7s-0.7-1.1-0.7-1.8
		c0-0.5,0.1-0.9,0.3-1.2c0.3-0.5,0.8-0.9,1.5-1.4c0.7-0.4,1.9-0.9,3.6-1.6v-0.4c0-1-0.2-1.7-0.5-2s-0.8-0.6-1.4-0.6
		c-0.4,0-0.8,0.1-1.1,0.4c-0.3,0.2-0.4,0.5-0.4,0.8l0,0.6c0,0.3-0.1,0.6-0.2,0.8S54.7,54,54.4,54s-0.5-0.1-0.7-0.3s-0.2-0.4-0.2-0.8
		c0-0.6,0.3-1.2,0.9-1.7c0.6-0.5,1.5-0.8,2.7-0.8c0.9,0,1.6,0.2,2.2,0.4c0.4,0.2,0.7,0.6,0.9,1c0.1,0.3,0.2,0.9,0.2,1.9v3.3
		c0,0.9,0,1.5,0.1,1.7c0,0.2,0.1,0.3,0.2,0.4c0.1,0.1,0.2,0.1,0.3,0.1c0.1,0,0.2,0,0.3-0.1c0.2-0.1,0.4-0.3,0.9-0.8v0.6
		c-0.8,1.1-1.6,1.6-2.3,1.6c-0.3,0-0.6-0.1-0.8-0.4C58.7,60.2,58.6,59.8,58.6,59.2L58.6,59.2z M55.4,46.3c0.3,0,0.6,0.1,0.8,0.3
		c0.2,0.2,0.3,0.5,0.3,0.8s-0.1,0.6-0.3,0.8c-0.2,0.2-0.5,0.3-0.8,0.3s-0.6-0.1-0.8-0.3c-0.2-0.2-0.3-0.5-0.3-0.8s0.1-0.6,0.3-0.8
		C54.8,46.4,55.1,46.3,55.4,46.3z M58.6,58.6v-3.8c-1.1,0.4-1.8,0.7-2.1,0.9c-0.6,0.3-1,0.6-1.2,1C55.1,57,55,57.4,55,57.8
		c0,0.5,0.2,0.9,0.5,1.3s0.7,0.5,1.1,0.5C57,59.6,57.8,59.3,58.6,58.6z M59.2,46.3c0.3,0,0.6,0.1,0.8,0.3c0.2,0.2,0.3,0.5,0.3,0.8
		s-0.1,0.6-0.3,0.8c-0.2,0.2-0.5,0.3-0.8,0.3s-0.6-0.1-0.8-0.3c-0.2-0.2-0.3-0.5-0.3-0.8s0.1-0.6,0.3-0.8S58.9,46.3,59.2,46.3z"/>
	<path class="st3" d="M68.2,50.5c1.5,0,2.7,0.6,3.6,1.7c0.8,1,1.2,2.1,1.2,3.3c0,0.9-0.2,1.8-0.6,2.7s-1,1.6-1.8,2S69,61,68.1,61
		c-1.5,0-2.7-0.6-3.5-1.8c-0.7-1-1.1-2.1-1.1-3.3c0-0.9,0.2-1.8,0.7-2.7c0.4-0.9,1-1.6,1.8-2C66.6,50.7,67.4,50.5,68.2,50.5z
		 M67.9,51.2c-0.4,0-0.8,0.1-1.1,0.3c-0.4,0.2-0.7,0.6-0.9,1.2s-0.3,1.3-0.3,2.2c0,1.4,0.3,2.7,0.8,3.7s1.3,1.6,2.2,1.6
		c0.7,0,1.3-0.3,1.7-0.9s0.7-1.6,0.7-2.9c0-1.8-0.4-3.1-1.1-4.1C69.3,51.6,68.7,51.3,67.9,51.2L67.9,51.2z"/>
	<path class="st3" d="M78.3,45.4v13.1c0,0.6,0,1,0.1,1.2c0.1,0.2,0.2,0.3,0.4,0.5c0.2,0.1,0.5,0.2,1,0.2v0.4h-4.8v-0.4
		c0.4,0,0.8-0.1,0.9-0.1c0.2-0.1,0.3-0.2,0.4-0.5c0.1-0.2,0.1-0.6,0.1-1.2v-8.9c0-1.1,0-1.8-0.1-2.1c-0.1-0.2-0.1-0.4-0.2-0.5
		s-0.2-0.1-0.4-0.1c-0.2,0-0.4,0.1-0.7,0.2l-0.2-0.4l2.9-1.2L78.3,45.4L78.3,45.4z"/>
	<path class="st3" d="M86.4,50.5c1.5,0,2.7,0.6,3.6,1.7c0.8,1,1.2,2.1,1.2,3.3c0,0.9-0.2,1.8-0.6,2.7s-1,1.6-1.8,2S87.2,61,86.3,61
		c-1.5,0-2.7-0.6-3.5-1.8c-0.7-1-1.1-2.1-1.1-3.3c0-0.9,0.2-1.8,0.7-2.7s1-1.6,1.8-2C84.8,50.7,85.6,50.5,86.4,50.5z M86.1,51.2
		c-0.4,0-0.8,0.1-1.1,0.3c-0.4,0.2-0.7,0.6-0.9,1.2s-0.3,1.3-0.3,2.2c0,1.4,0.3,2.7,0.8,3.7s1.3,1.6,2.2,1.6c0.7,0,1.3-0.3,1.7-0.9
		s0.7-1.6,0.7-2.9c0-1.8-0.4-3.1-1.1-4.1C87.5,51.6,86.9,51.3,86.1,51.2L86.1,51.2z"/>
	<path class="st3" d="M95.8,57.1c-0.6-0.3-1.1-0.7-1.4-1.2c-0.3-0.5-0.5-1.1-0.5-1.8c0-1,0.4-1.8,1.1-2.5c0.7-0.7,1.7-1.1,2.8-1.1
		c0.9,0,1.8,0.2,2.4,0.7h2.1c0.3,0,0.5,0,0.5,0c0.1,0,0.1,0.1,0.1,0.1c0,0.1,0.1,0.2,0.1,0.3c0,0.2,0,0.3-0.1,0.4
		c0,0-0.1,0.1-0.1,0.1s-0.2,0-0.5,0h-1.3c0.4,0.5,0.6,1.2,0.6,2c0,0.9-0.4,1.7-1.1,2.3s-1.6,1-2.8,1c-0.5,0-1-0.1-1.5-0.2
		c-0.3,0.3-0.5,0.5-0.6,0.7c-0.1,0.2-0.2,0.4-0.2,0.5c0,0.1,0.1,0.2,0.2,0.3s0.3,0.2,0.7,0.2c0.2,0,0.7,0.1,1.5,0.1
		c1.5,0,2.4,0.1,2.9,0.2c0.7,0.1,1.2,0.3,1.6,0.7s0.6,0.9,0.6,1.5c0,0.8-0.4,1.6-1.1,2.3c-1.1,1.1-2.6,1.6-4.4,1.6
		c-1.4,0-2.6-0.3-3.5-0.9c-0.5-0.4-0.8-0.7-0.8-1.1c0-0.2,0-0.3,0.1-0.5c0.1-0.3,0.4-0.6,0.8-1.1c0.1-0.1,0.4-0.4,1.1-1.2
		c-0.4-0.2-0.6-0.4-0.8-0.6s-0.2-0.4-0.2-0.6c0-0.2,0.1-0.5,0.3-0.9S95.1,57.7,95.8,57.1L95.8,57.1z M95.7,60.7
		c-0.3,0.4-0.6,0.7-0.8,1s-0.3,0.6-0.3,0.9c0,0.3,0.2,0.6,0.6,0.9c0.7,0.4,1.8,0.7,3.1,0.7s2.2-0.2,2.8-0.7c0.6-0.5,0.9-0.9,0.9-1.5
		c0-0.4-0.2-0.6-0.6-0.8c-0.4-0.2-1.1-0.2-2.2-0.3C97.8,60.9,96.5,60.8,95.7,60.7L95.7,60.7z M97.7,51.1c-0.5,0-1,0.2-1.3,0.6
		s-0.5,1.1-0.5,1.9c0,1.1,0.2,2,0.7,2.6c0.4,0.5,0.8,0.7,1.4,0.7s1-0.2,1.3-0.6s0.5-1.1,0.5-1.9c0-1.1-0.2-2-0.7-2.7
		C98.7,51.3,98.2,51.1,97.7,51.1z"/>
	<path class="st3" d="M108.1,50.5v7.9c0,0.6,0,1,0.1,1.2c0.1,0.2,0.2,0.4,0.4,0.5s0.5,0.2,1,0.2v0.4h-4.8v-0.4c0.5,0,0.8-0.1,1-0.1
		c0.2-0.1,0.3-0.2,0.4-0.5s0.1-0.6,0.1-1.2v-3.8c0-1.1,0-1.8-0.1-2.1c-0.1-0.2-0.1-0.4-0.2-0.5c-0.1-0.1-0.2-0.1-0.4-0.1
		c-0.2,0-0.4,0.1-0.7,0.2l-0.1-0.4l3-1.2L108.1,50.5L108.1,50.5z M107.2,45.4c0.3,0,0.6,0.1,0.8,0.3s0.3,0.5,0.3,0.8
		s-0.1,0.6-0.3,0.8s-0.5,0.3-0.8,0.3s-0.6-0.1-0.8-0.3s-0.3-0.5-0.3-0.8s0.1-0.6,0.3-0.8S106.9,45.4,107.2,45.4L107.2,45.4z"/>
	<path class="st3" d="M117.7,50.5v3.3h-0.4c-0.3-1.1-0.6-1.8-1.1-2.2c-0.4-0.4-1-0.6-1.6-0.6c-0.5,0-0.9,0.1-1.2,0.4
		c-0.3,0.3-0.5,0.6-0.5,0.9c0,0.4,0.1,0.8,0.3,1c0.2,0.3,0.7,0.6,1.4,0.9l1.6,0.8c1.4,0.7,2.2,1.6,2.2,2.8c0,0.9-0.3,1.6-1,2.2
		c-0.7,0.6-1.4,0.8-2.3,0.8c-0.6,0-1.3-0.1-2.1-0.3c-0.2-0.1-0.4-0.1-0.6-0.1c-0.2,0-0.3,0.1-0.4,0.3h-0.4v-3.5h0.4
		c0.2,1,0.6,1.8,1.1,2.3c0.6,0.5,1.2,0.8,1.9,0.8c0.5,0,0.9-0.2,1.2-0.4c0.3-0.3,0.5-0.6,0.5-1.1c0-0.5-0.2-0.9-0.5-1.2
		s-1-0.8-2.1-1.3c-1-0.5-1.7-1-2-1.4c-0.3-0.4-0.5-0.9-0.5-1.6c0-0.8,0.3-1.5,0.8-2s1.3-0.8,2.1-0.8c0.4,0,0.9,0.1,1.4,0.2
		c0.4,0.1,0.6,0.2,0.7,0.2c0.1,0,0.2,0,0.3-0.1s0.1-0.2,0.2-0.3L117.7,50.5L117.7,50.5z"/>
	<path class="st3" d="M128.8,56.9c-0.3,1.3-0.8,2.3-1.6,3c-0.8,0.7-1.6,1.1-2.6,1.1c-1.1,0-2.1-0.5-2.9-1.4s-1.2-2.2-1.2-3.8
		s0.5-2.8,1.4-3.8c0.9-1,2-1.4,3.3-1.4c1,0,1.8,0.3,2.4,0.8c0.6,0.5,0.9,1,0.9,1.6c0,0.3-0.1,0.5-0.3,0.7c-0.2,0.2-0.4,0.2-0.7,0.2
		c-0.4,0-0.7-0.1-1-0.4c-0.1-0.2-0.2-0.4-0.2-0.9c0-0.4-0.2-0.8-0.4-1c-0.2-0.2-0.6-0.3-1-0.3c-0.7,0-1.3,0.3-1.7,0.8
		c-0.6,0.7-0.9,1.6-0.9,2.8s0.3,2.2,0.9,3.1c0.6,0.9,1.4,1.3,2.3,1.3c0.7,0,1.3-0.2,1.9-0.7c0.4-0.3,0.8-0.9,1.1-1.8L128.8,56.9
		L128.8,56.9z"/>
	<path class="st3" d="M133.7,45.4v7.2c0.8-0.9,1.4-1.4,1.9-1.7s0.9-0.4,1.4-0.4c0.6,0,1,0.2,1.4,0.5c0.4,0.3,0.7,0.8,0.9,1.4
		c0.1,0.5,0.2,1.3,0.2,2.5v3.5c0,0.6,0.1,1.1,0.1,1.3c0.1,0.2,0.2,0.3,0.4,0.4s0.5,0.2,0.9,0.2v0.4h-4.8v-0.4h0.2
		c0.5,0,0.8-0.1,1-0.2c0.2-0.1,0.3-0.3,0.4-0.6c0-0.1,0-0.4,0-1V55c0-1.1-0.1-1.8-0.2-2.1c-0.1-0.3-0.3-0.6-0.5-0.8
		c-0.2-0.2-0.5-0.2-0.9-0.2s-0.7,0.1-1.1,0.3s-0.8,0.6-1.4,1.1v5.2c0,0.7,0,1.1,0.1,1.3s0.2,0.3,0.4,0.4c0.2,0.1,0.6,0.2,1.1,0.2
		v0.4h-4.9v-0.4c0.4,0,0.8-0.1,1-0.2c0.1-0.1,0.3-0.2,0.3-0.4s0.1-0.6,0.1-1.2v-8.9c0-1.1,0-1.8-0.1-2.1s-0.1-0.4-0.2-0.5
		c-0.1-0.1-0.3-0.1-0.4-0.1c-0.1,0-0.4,0.1-0.7,0.2l-0.1-0.4l2.9-1.2L133.7,45.4L133.7,45.4z"/>
	<path class="st3" d="M144,54.5c0,1.5,0.4,2.6,1.1,3.4c0.7,0.8,1.6,1.2,2.5,1.2c0.6,0,1.2-0.2,1.7-0.5s0.9-1,1.2-1.8l0.3,0.2
		c-0.1,1-0.6,1.9-1.3,2.7c-0.7,0.8-1.6,1.2-2.7,1.2c-1.2,0-2.2-0.5-3-1.4s-1.3-2.2-1.3-3.7c0-1.7,0.4-3,1.3-3.9s1.9-1.4,3.2-1.4
		c1.1,0,2,0.4,2.7,1.1c0.7,0.7,1.1,1.7,1.1,2.9L144,54.5L144,54.5z M144,53.9h4.6c0-0.6-0.1-1.1-0.2-1.3c-0.2-0.4-0.4-0.7-0.8-0.9
		s-0.7-0.3-1.1-0.3c-0.6,0-1.1,0.2-1.6,0.7S144,53.1,144,53.9L144,53.9z"/>
</g>
<g>
	<path class="st3" d="M232.4,53.2c1,0.2,1.8,0.6,2.3,1c0.7,0.7,1,1.5,1,2.4c0,0.7-0.2,1.4-0.7,2.1s-1.1,1.2-1.9,1.4
		c-0.8,0.3-2,0.5-3.7,0.5h-6.9v-0.4h0.6c0.6,0,1.1-0.2,1.3-0.6c0.2-0.2,0.2-0.8,0.2-1.6v-9.4c0-0.9-0.1-1.5-0.3-1.7
		c-0.3-0.3-0.7-0.5-1.2-0.5h-0.6v-0.4h6.3c1.2,0,2.1,0.1,2.8,0.3c1.1,0.3,1.9,0.7,2.5,1.4c0.6,0.7,0.9,1.4,0.9,2.3
		c0,0.7-0.2,1.4-0.7,2C234,52.5,233.3,52.9,232.4,53.2L232.4,53.2z M226.8,52.6c0.3,0.1,0.6,0.1,0.9,0.1c0.3,0,0.7,0,1.1,0
		c1,0,1.8-0.1,2.4-0.3c0.5-0.2,0.9-0.6,1.2-1s0.4-1,0.4-1.5c0-0.8-0.4-1.6-1-2.2s-1.7-0.9-3-0.9c-0.7,0-1.4,0.1-1.9,0.2L226.8,52.6
		L226.8,52.6z M226.8,59.6c0.8,0.2,1.6,0.3,2.5,0.3c1.3,0,2.3-0.3,3-0.9c0.7-0.6,1-1.3,1-2.2c0-0.6-0.1-1.1-0.5-1.6
		s-0.8-0.9-1.5-1.2s-1.5-0.4-2.6-0.4c-0.4,0-0.8,0-1.1,0s-0.6,0-0.8,0.1L226.8,59.6L226.8,59.6z"/>
	<path class="st3" d="M243.8,59.2c-1,0.8-1.6,1.2-1.9,1.3c-0.4,0.2-0.8,0.3-1.2,0.3c-0.7,0-1.2-0.2-1.7-0.7
		c-0.4-0.5-0.7-1.1-0.7-1.8c0-0.5,0.1-0.9,0.3-1.2c0.3-0.5,0.8-0.9,1.5-1.4s1.9-0.9,3.6-1.6v-0.4c0-1-0.2-1.7-0.5-2
		c-0.3-0.4-0.8-0.6-1.4-0.6c-0.5,0-0.8,0.1-1.1,0.4c-0.3,0.2-0.4,0.5-0.4,0.8l0,0.6c0,0.3-0.1,0.6-0.2,0.8s-0.4,0.3-0.7,0.3
		s-0.5-0.1-0.6-0.3c-0.2-0.2-0.2-0.4-0.2-0.8c0-0.6,0.3-1.2,1-1.7s1.5-0.8,2.6-0.8c0.9,0,1.6,0.2,2.1,0.4c0.4,0.2,0.7,0.6,0.9,1
		c0.1,0.3,0.2,0.9,0.2,1.9v3.3c0,0.9,0,1.5,0,1.7c0,0.2,0.1,0.3,0.2,0.4c0.1,0.1,0.2,0.1,0.3,0.1c0.1,0,0.2,0,0.3-0.1
		c0.1-0.1,0.4-0.3,0.9-0.8v0.6c-0.8,1.1-1.6,1.6-2.3,1.6c-0.4,0-0.6-0.1-0.8-0.4S243.8,59.8,243.8,59.2L243.8,59.2z M243.8,58.5
		v-3.8c-1.1,0.4-1.8,0.7-2.1,0.9c-0.6,0.3-1,0.6-1.2,1s-0.4,0.7-0.4,1.1c0,0.5,0.1,0.9,0.5,1.3s0.7,0.5,1.1,0.5
		C242.1,59.6,242.9,59.3,243.8,58.5z"/>
	<path class="st3" d="M257.1,50.8v6c0,1.1,0,1.8,0.1,2.1c0,0.2,0.1,0.4,0.3,0.5s0.3,0.2,0.4,0.2c0.2,0,0.5-0.1,0.8-0.2l0.1,0.4
		l-2.9,1.2h-0.5v-2.1c-0.8,0.9-1.5,1.5-1.9,1.7S252.5,61,252,61c-0.5,0-1-0.2-1.4-0.5s-0.7-0.7-0.8-1.2s-0.2-1.2-0.2-2.1v-4.4
		c0-0.5,0-0.8-0.1-1s-0.2-0.3-0.5-0.4c-0.2-0.1-0.5-0.1-1.1-0.1v-0.4h3.5v6.6c0,0.9,0.2,1.5,0.5,1.8c0.3,0.3,0.7,0.4,1.2,0.4
		c0.3,0,0.7-0.1,1-0.3c0.4-0.2,0.9-0.6,1.4-1.1v-5.6c0-0.6-0.1-0.9-0.3-1.1c-0.2-0.2-0.6-0.3-1.3-0.3v-0.4L257.1,50.8L257.1,50.8z"
		/>
	<path class="st3" d="M262.9,45.4v7.2c0.8-0.9,1.4-1.4,1.9-1.7s0.9-0.4,1.4-0.4c0.6,0,1,0.2,1.4,0.5s0.7,0.8,0.9,1.4
		c0.1,0.5,0.2,1.3,0.2,2.5v3.5c0,0.6,0,1.1,0.1,1.3c0.1,0.2,0.2,0.3,0.4,0.4s0.5,0.2,1,0.2v0.4h-4.8v-0.4h0.2c0.5,0,0.8-0.1,1-0.2
		s0.3-0.3,0.4-0.6c0-0.1,0-0.4,0-1V55c0-1.1-0.1-1.8-0.2-2.1c-0.1-0.3-0.3-0.6-0.5-0.8c-0.2-0.2-0.5-0.2-0.9-0.2s-0.7,0.1-1.1,0.3
		s-0.8,0.6-1.4,1.1v5.2c0,0.7,0,1.1,0.1,1.3c0.1,0.2,0.2,0.3,0.4,0.4c0.2,0.1,0.6,0.2,1.1,0.2v0.4h-4.9v-0.4c0.4,0,0.8-0.1,1-0.2
		c0.1-0.1,0.3-0.2,0.3-0.4s0.1-0.6,0.1-1.2v-8.9c0-1.1,0-1.8-0.1-2.1c0-0.3-0.1-0.4-0.2-0.5c-0.1-0.1-0.3-0.1-0.5-0.1
		c-0.1,0-0.4,0.1-0.7,0.2l-0.1-0.4l2.9-1.2L262.9,45.4L262.9,45.4z"/>
	<path class="st3" d="M274.9,50.5v7.9c0,0.6,0,1,0.1,1.2c0.1,0.2,0.2,0.4,0.4,0.5s0.5,0.2,1,0.2v0.4h-4.8v-0.4c0.5,0,0.8-0.1,1-0.1
		s0.3-0.2,0.4-0.5s0.1-0.6,0.1-1.2v-3.8c0-1.1,0-1.8-0.1-2.1c0-0.2-0.1-0.4-0.2-0.5c-0.1-0.1-0.2-0.1-0.4-0.1
		c-0.2,0-0.4,0.1-0.7,0.2l-0.1-0.4l3-1.2L274.9,50.5L274.9,50.5z M274.1,45.4c0.3,0,0.6,0.1,0.8,0.3s0.3,0.5,0.3,0.8
		s-0.1,0.6-0.3,0.8c-0.2,0.2-0.5,0.3-0.8,0.3s-0.6-0.1-0.8-0.3s-0.3-0.5-0.3-0.8s0.1-0.6,0.3-0.8C273.5,45.5,273.8,45.4,274.1,45.4
		L274.1,45.4z"/>
	<path class="st3" d="M284.6,50.5v3.3h-0.4c-0.3-1.1-0.6-1.8-1-2.2c-0.4-0.4-1-0.6-1.6-0.6c-0.5,0-0.9,0.1-1.2,0.4s-0.5,0.6-0.5,0.9
		c0,0.4,0.1,0.8,0.3,1c0.2,0.3,0.7,0.6,1.4,0.9l1.6,0.8c1.5,0.7,2.2,1.6,2.2,2.8c0,0.9-0.3,1.6-1,2.2c-0.7,0.6-1.4,0.8-2.3,0.8
		c-0.6,0-1.3-0.1-2.1-0.3c-0.2-0.1-0.4-0.1-0.6-0.1c-0.2,0-0.3,0.1-0.4,0.3h-0.4v-3.5h0.4c0.2,1,0.6,1.8,1.1,2.3s1.2,0.8,1.9,0.8
		c0.5,0,0.9-0.2,1.2-0.4c0.3-0.3,0.5-0.6,0.5-1.1c0-0.5-0.2-0.9-0.5-1.2c-0.4-0.3-1-0.8-2.1-1.3s-1.7-1-2-1.4
		c-0.3-0.4-0.5-0.9-0.5-1.6c0-0.8,0.3-1.5,0.8-2c0.6-0.5,1.3-0.8,2.1-0.8c0.4,0,0.9,0.1,1.4,0.2c0.4,0.1,0.6,0.2,0.7,0.2
		c0.1,0,0.2,0,0.3-0.1s0.1-0.2,0.2-0.3L284.6,50.5L284.6,50.5z"/>
	<path class="st3" d="M290.2,47.6v3.2h2.3v0.8h-2.3v6.4c0,0.6,0.1,1.1,0.3,1.3s0.4,0.3,0.7,0.3c0.2,0,0.5-0.1,0.7-0.2
		s0.4-0.4,0.5-0.7h0.4c-0.2,0.7-0.6,1.2-1.1,1.6c-0.5,0.4-0.9,0.5-1.4,0.5c-0.3,0-0.6-0.1-1-0.3s-0.5-0.4-0.7-0.8
		c-0.1-0.3-0.2-0.9-0.2-1.6v-6.6h-1.6v-0.3c0.4-0.2,0.8-0.4,1.2-0.8c0.4-0.4,0.8-0.8,1.1-1.3c0.2-0.3,0.4-0.8,0.7-1.5L290.2,47.6
		L290.2,47.6z"/>
	<path class="st3" d="M298.8,50.5c1.5,0,2.7,0.6,3.6,1.7c0.8,1,1.1,2.1,1.1,3.3c0,0.9-0.2,1.8-0.6,2.7s-1,1.6-1.8,2
		c-0.7,0.5-1.6,0.7-2.5,0.7c-1.5,0-2.7-0.6-3.5-1.8c-0.7-1-1.1-2.1-1.1-3.3c0-0.9,0.2-1.8,0.7-2.7s1-1.6,1.8-2
		C297.2,50.7,298,50.5,298.8,50.5z M298.4,51.2c-0.4,0-0.8,0.1-1.1,0.3c-0.4,0.2-0.7,0.6-0.9,1.2s-0.4,1.3-0.4,2.2
		c0,1.4,0.3,2.7,0.9,3.7s1.3,1.6,2.2,1.6c0.7,0,1.3-0.3,1.7-0.9s0.7-1.6,0.7-2.9c0-1.8-0.4-3.1-1.1-4.1
		C299.9,51.6,299.2,51.3,298.4,51.2L298.4,51.2z"/>
	<path class="st3" d="M308.4,50.5v2.2c0.8-1.5,1.7-2.2,2.5-2.2c0.4,0,0.7,0.1,1,0.4s0.4,0.5,0.4,0.8c0,0.3-0.1,0.5-0.3,0.7
		s-0.4,0.3-0.7,0.3s-0.5-0.1-0.8-0.4S310,52,309.8,52c-0.1,0-0.3,0.1-0.4,0.2c-0.3,0.3-0.7,0.8-1,1.4v4.7c0,0.5,0.1,1,0.2,1.2
		c0.1,0.2,0.3,0.3,0.5,0.5s0.6,0.2,1,0.2v0.4h-5v-0.4c0.5,0,0.9-0.1,1.1-0.2c0.2-0.1,0.3-0.3,0.4-0.6c0-0.1,0-0.5,0-1v-3.8
		c0-1.2,0-1.8-0.1-2.1c0-0.2-0.1-0.4-0.3-0.5c-0.1-0.1-0.3-0.2-0.5-0.2c-0.2,0-0.5,0.1-0.8,0.2l-0.1-0.4l3-1.2L308.4,50.5
		L308.4,50.5z"/>
	<path class="st3" d="M316.7,50.5v7.9c0,0.6,0,1,0.1,1.2c0.1,0.2,0.2,0.4,0.4,0.5s0.5,0.2,1,0.2v0.4h-4.8v-0.4c0.5,0,0.8-0.1,1-0.1
		s0.3-0.2,0.4-0.5s0.1-0.6,0.1-1.2v-3.8c0-1.1,0-1.8-0.1-2.1c0-0.2-0.1-0.4-0.2-0.5c-0.1-0.1-0.2-0.1-0.4-0.1
		c-0.2,0-0.4,0.1-0.7,0.2l-0.1-0.4l3-1.2L316.7,50.5L316.7,50.5z M315.9,45.4c0.3,0,0.6,0.1,0.8,0.3s0.3,0.5,0.3,0.8
		s-0.1,0.6-0.3,0.8c-0.2,0.2-0.5,0.3-0.8,0.3s-0.6-0.1-0.8-0.3s-0.3-0.5-0.3-0.8s0.1-0.6,0.3-0.8C315.3,45.5,315.6,45.4,315.9,45.4
		L315.9,45.4z"/>
	<path class="st3" d="M326.4,50.5v3.3H326c-0.3-1.1-0.6-1.8-1-2.2c-0.4-0.4-1-0.6-1.6-0.6c-0.5,0-0.9,0.1-1.2,0.4s-0.5,0.6-0.5,0.9
		c0,0.4,0.1,0.8,0.3,1c0.2,0.3,0.7,0.6,1.4,0.9l1.6,0.8c1.5,0.7,2.2,1.6,2.2,2.8c0,0.9-0.3,1.6-1,2.2c-0.7,0.6-1.4,0.8-2.3,0.8
		c-0.6,0-1.3-0.1-2.1-0.3c-0.2-0.1-0.4-0.1-0.6-0.1c-0.2,0-0.3,0.1-0.4,0.3h-0.4v-3.5h0.4c0.2,1,0.6,1.8,1.1,2.3s1.2,0.8,1.9,0.8
		c0.5,0,0.9-0.2,1.2-0.4c0.3-0.3,0.5-0.6,0.5-1.1c0-0.5-0.2-0.9-0.5-1.2c-0.4-0.3-1-0.8-2.1-1.3s-1.7-1-2-1.4
		c-0.3-0.4-0.5-0.9-0.5-1.6c0-0.8,0.3-1.5,0.8-2c0.6-0.5,1.3-0.8,2.1-0.8c0.4,0,0.9,0.1,1.4,0.2c0.4,0.1,0.6,0.2,0.7,0.2
		c0.1,0,0.2,0,0.3-0.1s0.1-0.2,0.2-0.3L326.4,50.5L326.4,50.5z"/>
	<path class="st3" d="M337.5,56.9c-0.3,1.3-0.8,2.3-1.6,3c-0.8,0.7-1.6,1.1-2.6,1.1c-1.1,0-2.1-0.5-2.9-1.4s-1.2-2.2-1.2-3.8
		s0.5-2.8,1.4-3.8c0.9-1,2-1.4,3.3-1.4c1,0,1.8,0.3,2.4,0.8c0.6,0.5,0.9,1,0.9,1.6c0,0.3-0.1,0.5-0.3,0.7c-0.2,0.2-0.4,0.2-0.7,0.2
		c-0.4,0-0.7-0.1-1-0.4c-0.1-0.2-0.2-0.4-0.2-0.9c0-0.4-0.2-0.8-0.4-1c-0.2-0.2-0.6-0.3-1-0.3c-0.7,0-1.3,0.3-1.7,0.8
		c-0.6,0.7-0.9,1.6-0.9,2.8s0.3,2.2,0.9,3.1s1.4,1.3,2.3,1.3c0.7,0,1.3-0.2,1.9-0.7c0.4-0.3,0.8-0.9,1.1-1.8L337.5,56.9L337.5,56.9z
		"/>
	<path class="st3" d="M342.3,45.4v7.2c0.8-0.9,1.4-1.4,1.9-1.7s0.9-0.4,1.4-0.4c0.6,0,1,0.2,1.4,0.5s0.7,0.8,0.9,1.4
		c0.1,0.5,0.2,1.3,0.2,2.5v3.5c0,0.6,0,1.1,0.1,1.3c0.1,0.2,0.2,0.3,0.4,0.4s0.5,0.2,1,0.2v0.4h-4.8v-0.4h0.2c0.5,0,0.8-0.1,1-0.2
		s0.3-0.3,0.4-0.6c0-0.1,0-0.4,0-1V55c0-1.1-0.1-1.8-0.2-2.1c-0.1-0.3-0.3-0.6-0.5-0.8c-0.2-0.2-0.5-0.2-0.9-0.2s-0.7,0.1-1.1,0.3
		s-0.8,0.6-1.4,1.1v5.2c0,0.7,0,1.1,0.1,1.3c0.1,0.2,0.2,0.3,0.4,0.4c0.2,0.1,0.6,0.2,1.1,0.2v0.4H339v-0.4c0.4,0,0.8-0.1,1-0.2
		c0.1-0.1,0.3-0.2,0.3-0.4s0.1-0.6,0.1-1.2v-8.9c0-1.1,0-1.8-0.1-2.1c0-0.3-0.1-0.4-0.2-0.5c-0.1-0.1-0.3-0.1-0.5-0.1
		c-0.1,0-0.4,0.1-0.7,0.2l-0.1-0.4l2.9-1.2L342.3,45.4L342.3,45.4z"/>
	<path class="st3" d="M352.6,54.5c0,1.5,0.4,2.6,1.1,3.4s1.6,1.2,2.5,1.2c0.6,0,1.2-0.2,1.7-0.5c0.5-0.3,0.9-1,1.2-1.8l0.3,0.2
		c-0.1,1-0.6,1.9-1.3,2.7c-0.7,0.8-1.6,1.2-2.7,1.2c-1.2,0-2.2-0.5-3-1.4c-0.8-0.9-1.3-2.2-1.3-3.7c0-1.7,0.4-3,1.3-3.9
		c0.9-0.9,2-1.4,3.2-1.4c1.1,0,2,0.4,2.7,1.1c0.7,0.7,1.1,1.7,1.1,2.9L352.6,54.5L352.6,54.5z M352.6,53.9h4.5
		c0-0.6-0.1-1.1-0.2-1.3c-0.2-0.4-0.5-0.7-0.8-0.9c-0.4-0.2-0.7-0.3-1.1-0.3c-0.6,0-1.1,0.2-1.6,0.7C353,52.4,352.7,53.1,352.6,53.9
		z"/>
</g>
<g>
	<path class="st3" d="M6.6,82.1v-0.4h0.5c0.6,0,1-0.2,1.3-0.6c0.2-0.2,0.2-0.8,0.2-1.6v-9.4c0-0.9-0.1-1.5-0.3-1.7
		c-0.3-0.3-0.7-0.5-1.3-0.5H6.6v-0.4h5.9c2.2,0,3.8,0.2,5,0.7c1.1,0.5,2,1.3,2.7,2.5c0.7,1.2,1,2.5,1,4c0,2-0.6,3.7-1.8,5.1
		c-1.4,1.5-3.5,2.3-6.3,2.3C13.2,82.1,6.6,82.1,6.6,82.1z M10.8,81c0.9,0.2,1.7,0.3,2.3,0.3c1.7,0,3-0.6,4.1-1.8s1.6-2.8,1.6-4.8
		s-0.5-3.6-1.6-4.8s-2.5-1.7-4.2-1.7c-0.6,0-1.4,0.1-2.2,0.3L10.8,81L10.8,81z"/>
	<path class="st3" d="M26.8,71.9v7.9c0,0.6,0,1,0.1,1.2c0.1,0.2,0.2,0.4,0.4,0.5s0.5,0.2,1,0.2v0.4h-4.8v-0.4c0.5,0,0.8-0.1,1-0.1
		c0.2-0.1,0.3-0.2,0.4-0.5s0.2-0.6,0.2-1.2v-3.8c0-1.1,0-1.8-0.1-2.1c0-0.2-0.1-0.4-0.2-0.5c-0.1-0.1-0.2-0.1-0.4-0.1
		c-0.2,0-0.4,0.1-0.7,0.2l-0.2-0.4l3-1.2L26.8,71.9L26.8,71.9z M25.9,66.8c0.3,0,0.6,0.1,0.8,0.3s0.3,0.5,0.3,0.8s-0.1,0.6-0.3,0.8
		S26.2,69,25.9,69s-0.6-0.1-0.8-0.3s-0.3-0.5-0.3-0.8s0.1-0.6,0.3-0.8S25.6,66.8,25.9,66.8L25.9,66.8z"/>
	<path class="st3" d="M31.7,75.9c0,1.5,0.3,2.6,1.1,3.4c0.7,0.8,1.6,1.2,2.5,1.2c0.6,0,1.2-0.2,1.7-0.5c0.5-0.3,0.9-1,1.2-1.8
		l0.3,0.2c-0.2,1-0.6,1.9-1.3,2.7c-0.7,0.8-1.6,1.2-2.7,1.2c-1.2,0-2.2-0.5-3-1.4s-1.3-2.2-1.3-3.7c0-1.7,0.4-3,1.3-3.9
		s2-1.4,3.2-1.4c1.1,0,2,0.4,2.7,1.1c0.7,0.7,1.1,1.7,1.1,2.9L31.7,75.9L31.7,75.9z M31.7,75.3h4.5c0-0.6-0.1-1.1-0.2-1.3
		c-0.2-0.4-0.5-0.7-0.8-0.9s-0.7-0.3-1.1-0.3c-0.6,0-1.1,0.2-1.6,0.7C32,73.8,31.8,74.5,31.7,75.3L31.7,75.3z"/>
	<path class="st3" d="M43.2,74c1.2-1.4,2.2-2.1,3.3-2.1c0.5,0,1,0.1,1.4,0.4c0.4,0.3,0.7,0.7,0.9,1.3c0.2,0.4,0.2,1.1,0.2,2v4.2
		c0,0.6,0.1,1.1,0.2,1.3c0.1,0.2,0.2,0.3,0.4,0.4c0.2,0.1,0.5,0.2,1,0.2v0.4h-4.9v-0.4h0.2c0.5,0,0.8-0.1,1-0.2s0.3-0.3,0.4-0.6
		c0-0.1,0-0.4,0-1v-4c0-0.9-0.1-1.5-0.3-1.9c-0.2-0.4-0.6-0.6-1.2-0.6c-0.8,0-1.7,0.5-2.6,1.4v5.2c0,0.7,0,1.1,0.1,1.2
		c0.1,0.2,0.2,0.4,0.4,0.5c0.2,0.1,0.5,0.1,1.1,0.1v0.4h-4.9v-0.4h0.2c0.5,0,0.8-0.1,1-0.4s0.3-0.7,0.3-1.5v-3.7
		c0-1.2,0-1.9-0.1-2.2s-0.1-0.4-0.2-0.5c-0.1-0.1-0.3-0.1-0.4-0.1c-0.2,0-0.4,0.1-0.7,0.2l-0.2-0.4l3-1.2h0.5L43.2,74L43.2,74z"/>
	<path class="st3" d="M58.3,71.9v3.3h-0.3c-0.3-1.1-0.6-1.8-1.1-2.2c-0.4-0.4-1-0.6-1.6-0.6c-0.5,0-0.9,0.1-1.2,0.4
		c-0.3,0.3-0.5,0.6-0.5,0.9c0,0.4,0.1,0.8,0.3,1c0.2,0.3,0.7,0.6,1.3,0.9l1.6,0.8c1.4,0.7,2.2,1.6,2.2,2.8c0,0.9-0.3,1.6-1,2.2
		c-0.7,0.6-1.4,0.8-2.3,0.8c-0.6,0-1.3-0.1-2.1-0.3c-0.2-0.1-0.4-0.1-0.6-0.1c-0.2,0-0.3,0.1-0.4,0.3h-0.3v-3.5h0.3
		c0.2,1,0.6,1.8,1.2,2.3c0.6,0.5,1.2,0.8,1.9,0.8c0.5,0,0.9-0.2,1.2-0.4c0.3-0.3,0.5-0.6,0.5-1.1c0-0.5-0.2-0.9-0.5-1.2
		s-1-0.8-2.1-1.3s-1.7-1-2-1.4c-0.3-0.4-0.5-0.9-0.5-1.6c0-0.8,0.3-1.5,0.8-2s1.3-0.8,2.2-0.8c0.4,0,0.9,0.1,1.4,0.2
		c0.4,0.1,0.6,0.2,0.7,0.2c0.1,0,0.2,0,0.3-0.1s0.1-0.2,0.2-0.3L58.3,71.9L58.3,71.9z"/>
	<path class="st3" d="M63.8,69v3.2h2.3V73h-2.3v6.4c0,0.6,0.1,1.1,0.3,1.3c0.2,0.2,0.4,0.3,0.7,0.3c0.2,0,0.5-0.1,0.7-0.2
		s0.4-0.4,0.5-0.7h0.4c-0.2,0.7-0.6,1.2-1.1,1.6c-0.5,0.4-0.9,0.5-1.4,0.5c-0.3,0-0.7-0.1-1-0.3s-0.6-0.4-0.7-0.8
		c-0.2-0.3-0.2-0.9-0.2-1.6V73h-1.6v-0.3c0.4-0.2,0.8-0.4,1.2-0.8c0.4-0.4,0.8-0.8,1.1-1.3c0.2-0.3,0.4-0.8,0.7-1.5L63.8,69L63.8,69
		z"/>
	<path class="st3" d="M71,66.8v13.1c0,0.6,0,1,0.1,1.2c0.1,0.2,0.2,0.3,0.4,0.5c0.2,0.1,0.5,0.2,1,0.2v0.4h-4.8v-0.4
		c0.4,0,0.8-0.1,0.9-0.1c0.2-0.1,0.3-0.2,0.4-0.5c0.1-0.2,0.1-0.6,0.1-1.2v-8.9c0-1.1,0-1.8-0.1-2.1c-0.1-0.2-0.1-0.4-0.2-0.5
		s-0.2-0.1-0.4-0.1c-0.2,0-0.4,0.1-0.7,0.2L67.6,68l2.9-1.2L71,66.8L71,66.8z"/>
	<path class="st3" d="M76,75.9c0,1.5,0.3,2.6,1.1,3.4c0.7,0.8,1.6,1.2,2.5,1.2c0.6,0,1.2-0.2,1.7-0.5s0.9-1,1.2-1.8l0.3,0.2
		c-0.2,1-0.6,1.9-1.3,2.7c-0.7,0.8-1.6,1.2-2.7,1.2c-1.2,0-2.2-0.5-3-1.4s-1.3-2.2-1.3-3.7c0-1.7,0.4-3,1.3-3.9s1.9-1.4,3.2-1.4
		c1.1,0,2,0.4,2.7,1.1c0.7,0.7,1.1,1.7,1.1,2.9L76,75.9L76,75.9z M76,75.3h4.6c0-0.6-0.1-1.1-0.2-1.3c-0.2-0.4-0.4-0.7-0.8-0.9
		s-0.7-0.3-1.1-0.3c-0.6,0-1.1,0.2-1.6,0.7S76,74.5,76,75.3L76,75.3z"/>
	<path class="st3" d="M88,71.9v7.9c0,0.6,0,1,0.1,1.2c0.1,0.2,0.2,0.4,0.4,0.5s0.5,0.2,1,0.2v0.4h-4.8v-0.4c0.5,0,0.8-0.1,1-0.1
		c0.2-0.1,0.3-0.2,0.4-0.5s0.2-0.6,0.2-1.2v-3.8c0-1.1,0-1.8-0.1-2.1c-0.1-0.2-0.1-0.4-0.2-0.5c-0.1-0.1-0.2-0.1-0.4-0.1
		c-0.2,0-0.4,0.1-0.7,0.2l-0.2-0.4l3-1.2L88,71.9L88,71.9z M87.1,66.8c0.3,0,0.6,0.1,0.8,0.3s0.3,0.5,0.3,0.8s-0.1,0.6-0.3,0.8
		S87.4,69,87.1,69s-0.6-0.1-0.8-0.3S86,68.2,86,67.9s0.1-0.6,0.3-0.8S86.8,66.8,87.1,66.8L87.1,66.8z"/>
	<path class="st3" d="M97.7,71.9v3.3h-0.3c-0.3-1.1-0.6-1.8-1.1-2.2c-0.4-0.4-1-0.6-1.6-0.6c-0.5,0-0.9,0.1-1.2,0.4
		c-0.3,0.3-0.5,0.6-0.5,0.9c0,0.4,0.1,0.8,0.3,1c0.2,0.3,0.7,0.6,1.3,0.9l1.6,0.8c1.4,0.7,2.2,1.6,2.2,2.8c0,0.9-0.3,1.6-1,2.2
		c-0.7,0.6-1.4,0.8-2.3,0.8c-0.6,0-1.3-0.1-2.1-0.3c-0.2-0.1-0.4-0.1-0.6-0.1c-0.2,0-0.3,0.1-0.4,0.3h-0.3v-3.5h0.3
		c0.2,1,0.6,1.8,1.2,2.3c0.6,0.5,1.2,0.8,1.9,0.8c0.5,0,0.9-0.2,1.2-0.4c0.3-0.3,0.5-0.6,0.5-1.1c0-0.5-0.2-0.9-0.5-1.2
		s-1-0.8-2.1-1.3s-1.7-1-2-1.4c-0.3-0.4-0.5-0.9-0.5-1.6c0-0.8,0.3-1.5,0.8-2s1.3-0.8,2.2-0.8c0.4,0,0.9,0.1,1.4,0.2
		c0.4,0.1,0.6,0.2,0.7,0.2c0.1,0,0.2,0,0.3-0.1s0.1-0.2,0.2-0.3L97.7,71.9L97.7,71.9z"/>
	<path class="st3" d="M103.2,69v3.2h2.3V73h-2.3v6.4c0,0.6,0.1,1.1,0.3,1.3s0.4,0.3,0.7,0.3c0.2,0,0.5-0.1,0.7-0.2s0.4-0.4,0.5-0.7
		h0.4c-0.2,0.7-0.6,1.2-1.1,1.6c-0.5,0.4-0.9,0.5-1.4,0.5c-0.3,0-0.6-0.1-1-0.3s-0.6-0.4-0.7-0.8s-0.2-0.9-0.2-1.6V73h-1.6v-0.3
		c0.4-0.2,0.8-0.4,1.2-0.8c0.4-0.4,0.8-0.8,1.1-1.3c0.2-0.3,0.4-0.8,0.7-1.5L103.2,69L103.2,69z"/>
	<path class="st3" d="M115.7,72.2v6c0,1.1,0,1.8,0.1,2.1c0.1,0.2,0.1,0.4,0.3,0.5s0.3,0.2,0.4,0.2c0.2,0,0.5-0.1,0.8-0.2l0.1,0.4
		l-2.9,1.2h-0.5v-2.1c-0.9,0.9-1.5,1.5-1.9,1.7c-0.4,0.2-0.9,0.3-1.4,0.3c-0.6,0-1-0.2-1.4-0.5s-0.7-0.7-0.8-1.2
		c-0.2-0.5-0.2-1.2-0.2-2.1v-4.4c0-0.5-0.1-0.8-0.1-1c-0.1-0.2-0.2-0.3-0.4-0.4c-0.2-0.1-0.6-0.1-1.1-0.1v-0.4h3.4v6.6
		c0,0.9,0.2,1.5,0.5,1.8c0.3,0.3,0.7,0.4,1.1,0.4c0.3,0,0.7-0.1,1.1-0.3s0.9-0.6,1.4-1.1v-5.6c0-0.6-0.1-0.9-0.3-1.1
		c-0.2-0.2-0.6-0.3-1.3-0.3v-0.4L115.7,72.2L115.7,72.2z"/>
	<path class="st3" d="M121.4,74c1.1-1.4,2.2-2.1,3.3-2.1c0.5,0,1,0.1,1.4,0.4c0.4,0.3,0.7,0.7,0.9,1.3c0.2,0.4,0.2,1.1,0.2,2v4.2
		c0,0.6,0.1,1.1,0.1,1.3c0.1,0.2,0.2,0.3,0.4,0.4c0.2,0.1,0.5,0.2,1,0.2v0.4h-4.9v-0.4h0.2c0.5,0,0.8-0.1,1-0.2
		c0.2-0.1,0.3-0.3,0.4-0.6c0-0.1,0-0.4,0-1v-4c0-0.9-0.1-1.5-0.4-1.9c-0.2-0.4-0.6-0.6-1.2-0.6c-0.9,0-1.7,0.5-2.6,1.4v5.2
		c0,0.7,0,1.1,0.1,1.2c0.1,0.2,0.2,0.4,0.4,0.5c0.2,0.1,0.5,0.1,1.1,0.1v0.4h-4.9v-0.4h0.2c0.5,0,0.8-0.1,1-0.4
		c0.2-0.2,0.3-0.7,0.3-1.5v-3.7c0-1.2,0-1.9-0.1-2.2s-0.1-0.4-0.2-0.5c-0.1-0.1-0.3-0.1-0.4-0.1c-0.2,0-0.4,0.1-0.7,0.2l-0.2-0.4
		l3-1.2h0.5L121.4,74L121.4,74z"/>
	<path class="st3" d="M132.8,78.5c-0.6-0.3-1.1-0.7-1.4-1.2c-0.3-0.5-0.5-1.1-0.5-1.8c0-1,0.4-1.8,1.1-2.5c0.7-0.7,1.7-1.1,2.8-1.1
		c0.9,0,1.8,0.2,2.4,0.7h2.1c0.3,0,0.5,0,0.5,0c0.1,0,0.1,0.1,0.1,0.1c0,0.1,0.1,0.2,0.1,0.3c0,0.2,0,0.3-0.1,0.4
		c0,0-0.1,0.1-0.1,0.1s-0.2,0-0.5,0h-1.3c0.4,0.5,0.6,1.2,0.6,2c0,0.9-0.4,1.7-1.1,2.3s-1.6,1-2.8,1c-0.5,0-1-0.1-1.5-0.2
		c-0.3,0.3-0.5,0.5-0.6,0.7c-0.1,0.2-0.2,0.4-0.2,0.5c0,0.1,0.1,0.2,0.2,0.3s0.4,0.2,0.7,0.2c0.2,0,0.7,0.1,1.5,0.1
		c1.5,0,2.4,0.1,2.9,0.2c0.7,0.1,1.2,0.3,1.6,0.7s0.6,0.9,0.6,1.5c0,0.8-0.4,1.6-1.1,2.3c-1.1,1.1-2.6,1.6-4.4,1.6
		c-1.4,0-2.6-0.3-3.5-0.9c-0.5-0.4-0.8-0.7-0.8-1.1c0-0.2,0-0.3,0.1-0.5c0.1-0.3,0.4-0.6,0.8-1.1c0.1-0.1,0.4-0.4,1.1-1.2
		c-0.4-0.2-0.6-0.4-0.8-0.6S131,81,131,80.8c0-0.2,0.1-0.5,0.3-0.9S132,79.1,132.8,78.5L132.8,78.5z M132.6,82.1
		c-0.3,0.4-0.6,0.7-0.8,1s-0.3,0.6-0.3,0.9c0,0.3,0.2,0.6,0.6,0.9c0.7,0.4,1.8,0.7,3.1,0.7s2.2-0.2,2.9-0.7c0.6-0.5,0.9-0.9,0.9-1.5
		c0-0.4-0.2-0.6-0.6-0.8c-0.4-0.2-1.1-0.2-2.2-0.3C134.7,82.3,133.5,82.2,132.6,82.1L132.6,82.1z M134.6,72.5c-0.5,0-1,0.2-1.3,0.6
		s-0.5,1.1-0.5,1.9c0,1.1,0.2,2,0.7,2.6c0.4,0.5,0.8,0.7,1.4,0.7s1-0.2,1.3-0.6c0.4-0.4,0.5-1.1,0.5-1.9c0-1.1-0.2-2-0.7-2.7
		C135.7,72.7,135.2,72.5,134.6,72.5L134.6,72.5z"/>
	<path class="st3" d="M143.3,75.9c0,1.5,0.4,2.6,1.1,3.4c0.7,0.8,1.6,1.2,2.5,1.2c0.6,0,1.2-0.2,1.7-0.5s0.9-1,1.2-1.8l0.3,0.2
		c-0.1,1-0.6,1.9-1.3,2.7c-0.7,0.8-1.6,1.2-2.7,1.2c-1.2,0-2.2-0.5-3-1.4s-1.3-2.2-1.3-3.7c0-1.7,0.4-3,1.3-3.9s1.9-1.4,3.2-1.4
		c1.1,0,2,0.4,2.7,1.1c0.7,0.7,1.1,1.7,1.1,2.9L143.3,75.9L143.3,75.9z M143.3,75.3h4.6c0-0.6-0.1-1.1-0.2-1.3
		c-0.2-0.4-0.4-0.7-0.8-0.9s-0.7-0.3-1.1-0.3c-0.6,0-1.1,0.2-1.6,0.7S143.4,74.5,143.3,75.3L143.3,75.3z"/>
	<path class="st3" d="M154.8,74c1.1-1.4,2.2-2.1,3.3-2.1c0.5,0,1,0.1,1.4,0.4c0.4,0.3,0.7,0.7,0.9,1.3c0.2,0.4,0.2,1.1,0.2,2v4.2
		c0,0.6,0.1,1.1,0.1,1.3c0.1,0.2,0.2,0.3,0.4,0.4c0.2,0.1,0.5,0.2,1,0.2v0.4h-4.9v-0.4h0.2c0.5,0,0.8-0.1,1-0.2
		c0.2-0.1,0.3-0.3,0.4-0.6c0-0.1,0-0.4,0-1v-4c0-0.9-0.1-1.5-0.4-1.9c-0.2-0.4-0.6-0.6-1.2-0.6c-0.9,0-1.7,0.5-2.6,1.4v5.2
		c0,0.7,0,1.1,0.1,1.2c0.1,0.2,0.2,0.4,0.4,0.5c0.2,0.1,0.5,0.1,1.1,0.1v0.4h-4.9v-0.4h0.2c0.5,0,0.8-0.1,1-0.4
		c0.2-0.2,0.3-0.7,0.3-1.5v-3.7c0-1.2,0-1.9-0.1-2.2s-0.1-0.4-0.2-0.5c-0.1-0.1-0.3-0.1-0.4-0.1c-0.2,0-0.4,0.1-0.7,0.2l-0.2-0.4
		l3-1.2h0.5L154.8,74L154.8,74z"/>
</g>
<g>
	<path class="st3" d="M232.2,66.9v-0.4h5.2v0.4h-0.5c-0.6,0-1,0.2-1.3,0.7c-0.1,0.2-0.2,0.7-0.2,1.6v5.9c0,1.5-0.1,2.6-0.4,3.4
		c-0.3,0.8-0.9,1.5-1.7,2.1c-0.9,0.6-2,0.9-3.5,0.9c-1.6,0-2.8-0.3-3.6-0.8s-1.4-1.3-1.8-2.2c-0.2-0.6-0.3-1.8-0.3-3.6v-5.7
		c0-0.9-0.1-1.5-0.4-1.8s-0.6-0.4-1.2-0.4h-0.6v-0.4h6.3v0.4h-0.6c-0.6,0-1,0.2-1.3,0.6c-0.2,0.3-0.3,0.8-0.3,1.6v6.3
		c0,0.6,0.1,1.2,0.2,1.9c0.1,0.7,0.3,1.3,0.6,1.7s0.7,0.8,1.2,1c0.5,0.3,1.1,0.4,1.9,0.4c1,0,1.8-0.2,2.6-0.6s1.3-0.9,1.5-1.6
		c0.3-0.7,0.4-1.8,0.4-3.3v-5.9c0-0.9-0.1-1.5-0.3-1.7c-0.3-0.3-0.7-0.5-1.2-0.5L232.2,66.9L232.2,66.9z"/>
	<path class="st3" d="M241.3,73c1.1-1.4,2.2-2.1,3.3-2.1c0.5,0,1,0.1,1.4,0.4c0.4,0.3,0.7,0.7,0.9,1.3c0.2,0.4,0.2,1.1,0.2,2v4.2
		c0,0.6,0,1.1,0.1,1.3c0.1,0.2,0.2,0.3,0.4,0.4s0.5,0.2,1,0.2v0.4h-4.9v-0.4h0.2c0.5,0,0.8-0.1,1-0.2s0.3-0.3,0.4-0.6
		c0-0.1,0-0.4,0-1v-4c0-0.9-0.1-1.5-0.4-1.9c-0.2-0.4-0.6-0.6-1.2-0.6c-0.9,0-1.7,0.5-2.5,1.4v5.2c0,0.7,0,1.1,0.1,1.2
		c0.1,0.2,0.2,0.4,0.4,0.5s0.5,0.1,1.1,0.1v0.4H238v-0.4h0.2c0.5,0,0.8-0.1,1-0.4c0.2-0.2,0.3-0.7,0.3-1.5v-3.7c0-1.2,0-1.9-0.1-2.2
		s-0.1-0.4-0.2-0.5c-0.1-0.1-0.3-0.1-0.5-0.1c-0.2,0-0.4,0.1-0.7,0.2l-0.2-0.4l3-1.2h0.5L241.3,73L241.3,73z"/>
	<path class="st3" d="M252.5,68v3.2h2.3V72h-2.3v6.4c0,0.6,0.1,1.1,0.3,1.3s0.4,0.3,0.7,0.3c0.2,0,0.5-0.1,0.7-0.2s0.4-0.4,0.5-0.7
		h0.4c-0.2,0.7-0.6,1.2-1.1,1.6c-0.5,0.4-0.9,0.5-1.4,0.5c-0.3,0-0.6-0.1-1-0.3s-0.5-0.4-0.7-0.8c-0.1-0.3-0.2-0.9-0.2-1.6V72h-1.6
		v-0.3c0.4-0.2,0.8-0.4,1.2-0.8c0.4-0.4,0.8-0.8,1.1-1.3c0.2-0.3,0.4-0.8,0.7-1.5L252.5,68L252.5,68z"/>
	<path class="st3" d="M257.7,74.9c0,1.5,0.4,2.6,1.1,3.4s1.6,1.2,2.5,1.2c0.6,0,1.2-0.2,1.7-0.5c0.5-0.3,0.9-1,1.2-1.8l0.3,0.2
		c-0.1,1-0.6,1.9-1.3,2.7c-0.7,0.8-1.6,1.2-2.7,1.2c-1.2,0-2.2-0.5-3-1.4c-0.8-0.9-1.3-2.2-1.3-3.7c0-1.7,0.4-3,1.3-3.9
		c0.9-0.9,2-1.4,3.2-1.4c1.1,0,2,0.4,2.7,1.1c0.7,0.7,1.1,1.7,1.1,2.9L257.7,74.9L257.7,74.9z M257.7,74.3h4.5
		c0-0.6-0.1-1.1-0.2-1.3c-0.2-0.4-0.5-0.7-0.8-0.9c-0.4-0.2-0.7-0.3-1.1-0.3c-0.6,0-1.1,0.2-1.6,0.7C258,72.9,257.7,73.5,257.7,74.3
		z"/>
	<path class="st3" d="M268.9,70.9v2.2c0.8-1.5,1.7-2.2,2.5-2.2c0.4,0,0.7,0.1,1,0.4s0.4,0.5,0.4,0.8c0,0.3-0.1,0.5-0.3,0.7
		s-0.4,0.3-0.7,0.3s-0.5-0.1-0.8-0.4s-0.5-0.4-0.7-0.4c-0.1,0-0.3,0.1-0.4,0.2c-0.3,0.3-0.7,0.8-1,1.4v4.7c0,0.5,0.1,1,0.2,1.2
		c0.1,0.2,0.3,0.3,0.5,0.5s0.6,0.2,1,0.2v0.4h-5v-0.4c0.5,0,0.9-0.1,1.1-0.2c0.2-0.1,0.3-0.3,0.4-0.6c0-0.1,0-0.5,0-1V75
		c0-1.2,0-1.8-0.1-2.1c0-0.2-0.1-0.4-0.3-0.5c-0.1-0.1-0.3-0.2-0.5-0.2c-0.2,0-0.5,0.1-0.8,0.2l-0.1-0.4l3-1.2L268.9,70.9
		L268.9,70.9z"/>
	<path class="st3" d="M279.9,70.9v3.3h-0.4c-0.3-1.1-0.6-1.8-1-2.2c-0.4-0.4-1-0.6-1.6-0.6c-0.5,0-0.9,0.1-1.2,0.4s-0.5,0.6-0.5,0.9
		c0,0.4,0.1,0.8,0.3,1c0.2,0.3,0.7,0.6,1.4,0.9l1.6,0.8c1.5,0.7,2.2,1.6,2.2,2.8c0,0.9-0.3,1.6-1,2.2c-0.7,0.6-1.4,0.8-2.3,0.8
		c-0.6,0-1.3-0.1-2.1-0.3c-0.2-0.1-0.4-0.1-0.6-0.1c-0.2,0-0.3,0.1-0.4,0.3h-0.4v-3.5h0.4c0.2,1,0.6,1.8,1.1,2.3s1.2,0.8,1.9,0.8
		c0.5,0,0.9-0.2,1.2-0.4c0.3-0.3,0.5-0.6,0.5-1.1c0-0.5-0.2-0.9-0.5-1.2c-0.4-0.3-1-0.8-2.1-1.3s-1.7-1-2-1.4
		c-0.3-0.4-0.5-0.9-0.5-1.6c0-0.8,0.3-1.5,0.8-2c0.6-0.5,1.3-0.8,2.1-0.8c0.4,0,0.9,0.1,1.4,0.2c0.4,0.1,0.6,0.2,0.7,0.2
		c0.1,0,0.2,0,0.3-0.1s0.1-0.2,0.2-0.3L279.9,70.9L279.9,70.9z"/>
	<path class="st3" d="M290.9,71.2v6c0,1.1,0,1.8,0.1,2.1c0,0.2,0.1,0.4,0.3,0.5s0.3,0.2,0.4,0.2c0.2,0,0.5-0.1,0.8-0.2l0.1,0.4
		l-2.9,1.2h-0.5v-2.1c-0.8,0.9-1.5,1.5-1.9,1.7s-0.9,0.3-1.4,0.3c-0.5,0-1-0.2-1.4-0.5s-0.7-0.7-0.8-1.2s-0.2-1.2-0.2-2.1v-4.4
		c0-0.5,0-0.8-0.1-1s-0.2-0.3-0.5-0.4c-0.2-0.1-0.5-0.1-1.1-0.1v-0.4h3.5v6.6c0,0.9,0.2,1.5,0.5,1.8c0.3,0.3,0.7,0.4,1.2,0.4
		c0.3,0,0.7-0.1,1-0.3c0.4-0.2,0.9-0.6,1.4-1.1v-5.6c0-0.6-0.1-0.9-0.3-1.1c-0.2-0.2-0.6-0.3-1.3-0.3v-0.4L290.9,71.2L290.9,71.2z"
		/>
	<path class="st3" d="M301.8,77.3c-0.3,1.3-0.8,2.3-1.6,3c-0.8,0.7-1.6,1.1-2.6,1.1c-1.1,0-2.1-0.5-2.9-1.4s-1.2-2.2-1.2-3.8
		s0.5-2.8,1.4-3.8c0.9-1,2-1.4,3.3-1.4c1,0,1.8,0.3,2.4,0.8c0.6,0.5,0.9,1,0.9,1.6c0,0.3-0.1,0.5-0.3,0.7c-0.2,0.2-0.4,0.2-0.7,0.2
		c-0.4,0-0.7-0.1-1-0.4c-0.1-0.2-0.2-0.4-0.2-0.9c0-0.4-0.2-0.8-0.4-1c-0.2-0.2-0.6-0.3-1-0.3c-0.7,0-1.3,0.3-1.7,0.8
		c-0.6,0.7-0.9,1.6-0.9,2.8s0.3,2.2,0.9,3.1s1.4,1.3,2.3,1.3c0.7,0,1.3-0.2,1.9-0.7c0.4-0.3,0.8-0.9,1.1-1.8L301.8,77.3L301.8,77.3z
		"/>
	<path class="st3" d="M306.4,65.8V73c0.8-0.9,1.4-1.4,1.9-1.7s0.9-0.4,1.4-0.4c0.6,0,1,0.2,1.4,0.5s0.7,0.8,0.9,1.4
		c0.1,0.5,0.2,1.3,0.2,2.5v3.5c0,0.6,0,1.1,0.1,1.3c0.1,0.2,0.2,0.3,0.4,0.4s0.5,0.2,1,0.2v0.4h-4.8v-0.4h0.2c0.5,0,0.8-0.1,1-0.2
		s0.3-0.3,0.4-0.6c0-0.1,0-0.4,0-1v-3.5c0-1.1-0.1-1.8-0.2-2.1c-0.1-0.3-0.3-0.6-0.5-0.8c-0.2-0.2-0.5-0.2-0.9-0.2s-0.7,0.1-1.1,0.3
		s-0.8,0.6-1.4,1.1v5.2c0,0.7,0,1.1,0.1,1.3c0.1,0.2,0.2,0.3,0.4,0.4c0.2,0.1,0.6,0.2,1.1,0.2v0.4h-4.9v-0.4c0.4,0,0.8-0.1,1-0.2
		c0.1-0.1,0.3-0.2,0.3-0.4s0.1-0.6,0.1-1.2V70c0-1.1,0-1.8-0.1-2.1c0-0.3-0.1-0.4-0.2-0.5c-0.1-0.1-0.3-0.1-0.5-0.1
		c-0.1,0-0.4,0.1-0.7,0.2l-0.1-0.4l2.9-1.2L306.4,65.8L306.4,65.8z"/>
	<path class="st3" d="M323.3,71.2v6c0,1.1,0,1.8,0.1,2.1c0,0.2,0.1,0.4,0.3,0.5s0.3,0.2,0.4,0.2c0.2,0,0.5-0.1,0.8-0.2l0.1,0.4
		l-2.9,1.2h-0.5v-2.1c-0.8,0.9-1.5,1.5-1.9,1.7s-0.9,0.3-1.4,0.3c-0.5,0-1-0.2-1.4-0.5s-0.7-0.7-0.8-1.2s-0.2-1.2-0.2-2.1v-4.4
		c0-0.5,0-0.8-0.1-1s-0.2-0.3-0.5-0.4c-0.2-0.1-0.5-0.1-1.1-0.1v-0.4h3.5v6.6c0,0.9,0.2,1.5,0.5,1.8c0.3,0.3,0.7,0.4,1.2,0.4
		c0.3,0,0.7-0.1,1-0.3c0.4-0.2,0.9-0.6,1.4-1.1v-5.6c0-0.6-0.1-0.9-0.3-1.1c-0.2-0.2-0.6-0.3-1.3-0.3v-0.4L323.3,71.2L323.3,71.2z"
		/>
	<path class="st3" d="M328.8,73c1.1-1.4,2.2-2.1,3.3-2.1c0.5,0,1,0.1,1.4,0.4c0.4,0.3,0.7,0.7,0.9,1.3c0.2,0.4,0.2,1.1,0.2,2v4.2
		c0,0.6,0,1.1,0.1,1.3c0.1,0.2,0.2,0.3,0.4,0.4s0.5,0.2,1,0.2v0.4h-4.9v-0.4h0.2c0.5,0,0.8-0.1,1-0.2s0.3-0.3,0.4-0.6
		c0-0.1,0-0.4,0-1v-4c0-0.9-0.1-1.5-0.4-1.9c-0.2-0.4-0.6-0.6-1.2-0.6c-0.9,0-1.7,0.5-2.5,1.4v5.2c0,0.7,0,1.1,0.1,1.2
		c0.1,0.2,0.2,0.4,0.4,0.5s0.5,0.1,1.1,0.1v0.4h-4.9v-0.4h0.2c0.5,0,0.8-0.1,1-0.4c0.2-0.2,0.3-0.7,0.3-1.5v-3.7
		c0-1.2,0-1.9-0.1-2.2s-0.1-0.4-0.2-0.5c-0.1-0.1-0.3-0.1-0.5-0.1c-0.2,0-0.4,0.1-0.7,0.2l-0.2-0.4l3-1.2h0.5L328.8,73L328.8,73z"/>
	<path class="st3" d="M339.8,77.5c-0.6-0.3-1.1-0.7-1.4-1.2c-0.3-0.5-0.5-1.1-0.5-1.8c0-1,0.4-1.8,1.1-2.5c0.7-0.7,1.7-1.1,2.8-1.1
		c0.9,0,1.8,0.2,2.4,0.7h2.1c0.3,0,0.5,0,0.5,0c0,0,0.1,0.1,0.1,0.1c0,0.1,0.1,0.2,0.1,0.3c0,0.2,0,0.3,0,0.4c0,0-0.1,0.1-0.1,0.1
		c0,0-0.2,0-0.5,0h-1.3c0.4,0.5,0.6,1.2,0.6,2c0,0.9-0.4,1.7-1,2.3s-1.6,1-2.8,1c-0.5,0-1-0.1-1.5-0.2c-0.3,0.3-0.5,0.5-0.6,0.7
		c-0.1,0.2-0.2,0.4-0.2,0.5c0,0.1,0.1,0.2,0.2,0.3s0.4,0.2,0.7,0.2c0.2,0,0.7,0.1,1.5,0.1c1.5,0,2.4,0.1,2.9,0.2
		c0.7,0.1,1.2,0.3,1.6,0.7c0.4,0.4,0.6,0.9,0.6,1.5c0,0.8-0.4,1.6-1.1,2.3c-1.1,1.1-2.6,1.6-4.4,1.6c-1.4,0-2.5-0.3-3.5-0.9
		c-0.5-0.4-0.8-0.7-0.8-1.1c0-0.2,0-0.3,0.1-0.5c0.1-0.3,0.4-0.6,0.8-1.1c0-0.1,0.4-0.4,1.1-1.2c-0.4-0.2-0.6-0.4-0.8-0.6
		S338,80,338,79.8c0-0.2,0.1-0.5,0.3-0.9S339,78.1,339.8,77.5L339.8,77.5z M339.7,81.1c-0.3,0.4-0.6,0.7-0.8,1s-0.3,0.6-0.3,0.9
		c0,0.3,0.2,0.6,0.6,0.9c0.7,0.4,1.8,0.7,3.1,0.7s2.2-0.2,2.9-0.7c0.6-0.5,0.9-0.9,0.9-1.5c0-0.4-0.2-0.6-0.5-0.8
		c-0.4-0.2-1.1-0.2-2.2-0.3C341.8,81.3,340.5,81.2,339.7,81.1L339.7,81.1z M341.6,71.5c-0.5,0-1,0.2-1.3,0.6s-0.5,1.1-0.5,1.9
		c0,1.1,0.2,2,0.7,2.6c0.4,0.5,0.8,0.7,1.4,0.7s1-0.2,1.3-0.6s0.5-1.1,0.5-1.9c0-1.1-0.2-2-0.7-2.7
		C342.7,71.7,342.2,71.5,341.6,71.5L341.6,71.5z"/>
	<path class="st3" d="M350,74.9c0,1.5,0.4,2.6,1.1,3.4s1.6,1.2,2.5,1.2c0.6,0,1.2-0.2,1.7-0.5c0.5-0.3,0.9-1,1.2-1.8l0.3,0.2
		c-0.1,1-0.6,1.9-1.3,2.7c-0.7,0.8-1.6,1.2-2.7,1.2c-1.2,0-2.2-0.5-3-1.4c-0.8-0.9-1.3-2.2-1.3-3.7c0-1.7,0.4-3,1.3-3.9
		c0.9-0.9,2-1.4,3.2-1.4c1.1,0,2,0.4,2.7,1.1c0.7,0.7,1.1,1.7,1.1,2.9L350,74.9L350,74.9z M350,74.3h4.5c0-0.6-0.1-1.1-0.2-1.3
		c-0.2-0.4-0.5-0.7-0.8-0.9c-0.4-0.2-0.7-0.3-1.1-0.3c-0.6,0-1.1,0.2-1.6,0.7C350.4,72.9,350.1,73.5,350,74.3z"/>
	<path class="st3" d="M361.2,73c1.1-1.4,2.2-2.1,3.3-2.1c0.5,0,1,0.1,1.4,0.4c0.4,0.3,0.7,0.7,0.9,1.3c0.2,0.4,0.2,1.1,0.2,2v4.2
		c0,0.6,0,1.1,0.1,1.3c0.1,0.2,0.2,0.3,0.4,0.4s0.5,0.2,1,0.2v0.4h-4.9v-0.4h0.2c0.5,0,0.8-0.1,1-0.2s0.3-0.3,0.4-0.6
		c0-0.1,0-0.4,0-1v-4c0-0.9-0.1-1.5-0.4-1.9c-0.2-0.4-0.6-0.6-1.2-0.6c-0.9,0-1.7,0.5-2.5,1.4v5.2c0,0.7,0,1.1,0.1,1.2
		c0.1,0.2,0.2,0.4,0.4,0.5s0.5,0.1,1.1,0.1v0.4h-4.9v-0.4h0.2c0.5,0,0.8-0.1,1-0.4c0.2-0.2,0.3-0.7,0.3-1.5v-3.7
		c0-1.2,0-1.9-0.1-2.2s-0.1-0.4-0.2-0.5c-0.1-0.1-0.3-0.1-0.5-0.1c-0.2,0-0.4,0.1-0.7,0.2l-0.2-0.4l3-1.2h0.5L361.2,73L361.2,73z"/>
</g>
</svg>
