<svg width="645" height="56" viewBox="0 0 645 56" fill="none" xmlns="http://www.w3.org/2000/svg">
<g opacity="0.6">
<path d="M175.615 44.8779C175.615 44.1915 175.763 43.581 176.06 43.0465C176.357 42.5053 176.77 42.0863 177.298 41.7893C177.832 41.4857 178.436 41.3339 179.109 41.3339C179.934 41.3339 180.64 41.5517 181.228 41.9873C181.815 42.4228 182.208 43.0168 182.406 43.7691H180.545C180.406 43.4788 180.208 43.2577 179.951 43.1059C179.7 42.9541 179.413 42.8782 179.089 42.8782C178.568 42.8782 178.146 43.0597 177.822 43.4227C177.499 43.7856 177.337 44.2707 177.337 44.8779C177.337 45.485 177.499 45.9701 177.822 46.3331C178.146 46.696 178.568 46.8775 179.089 46.8775C179.413 46.8775 179.7 46.8016 179.951 46.6498C180.208 46.4981 180.406 46.277 180.545 45.9866H182.406C182.208 46.7389 181.815 47.3329 181.228 47.7685C180.64 48.1974 179.934 48.4119 179.109 48.4119C178.436 48.4119 177.832 48.2634 177.298 47.9665C176.77 47.6629 176.357 47.2438 176.06 46.7092C175.763 46.1747 175.615 45.5642 175.615 44.8779ZM185.135 41.4131V48.3624H183.442V41.4131H185.135ZM188.965 41.4131C189.698 41.4131 190.338 41.5583 190.886 41.8487C191.434 42.139 191.856 42.5482 192.153 43.0762C192.457 43.5975 192.608 44.2014 192.608 44.8878C192.608 45.5675 192.457 46.1714 192.153 46.6993C191.856 47.2273 191.43 47.6365 190.876 47.9269C190.328 48.2172 189.691 48.3624 188.965 48.3624H186.362V41.4131H188.965ZM188.856 46.8973C189.497 46.8973 189.995 46.7224 190.351 46.3727C190.708 46.0229 190.886 45.5279 190.886 44.8878C190.886 44.2476 190.708 43.7493 190.351 43.393C189.995 43.0366 189.497 42.8584 188.856 42.8584H188.055V46.8973H188.856ZM196.841 48.4317C196.188 48.4317 195.587 48.2799 195.039 47.9764C194.498 47.6728 194.066 47.2504 193.742 46.7092C193.426 46.1615 193.267 45.5477 193.267 44.868C193.267 44.1882 193.426 43.5777 193.742 43.0366C194.066 42.4954 194.498 42.0731 195.039 41.7695C195.587 41.4659 196.188 41.3141 196.841 41.3141C197.494 41.3141 198.092 41.4659 198.633 41.7695C199.18 42.0731 199.609 42.4954 199.92 43.0366C200.236 43.5777 200.395 44.1882 200.395 44.868C200.395 45.5477 200.236 46.1615 199.92 46.7092C199.603 47.2504 199.174 47.6728 198.633 47.9764C198.092 48.2799 197.494 48.4317 196.841 48.4317ZM196.841 46.8874C197.395 46.8874 197.837 46.7026 198.167 46.3331C198.504 45.9635 198.672 45.4751 198.672 44.868C198.672 44.2542 198.504 43.7658 198.167 43.4029C197.837 43.0333 197.395 42.8485 196.841 42.8485C196.28 42.8485 195.831 43.03 195.495 43.393C195.165 43.7559 195 44.2476 195 44.868C195 45.4817 195.165 45.9734 195.495 46.343C195.831 46.7059 196.28 46.8874 196.841 46.8874ZM201.049 44.8779C201.049 44.1915 201.198 43.581 201.495 43.0465C201.792 42.5053 202.204 42.0863 202.732 41.7893C203.267 41.4857 203.871 41.3339 204.544 41.3339C205.369 41.3339 206.075 41.5517 206.662 41.9873C207.25 42.4228 207.642 43.0168 207.84 43.7691H205.979C205.841 43.4788 205.643 43.2577 205.385 43.1059C205.135 42.9541 204.847 42.8782 204.524 42.8782C204.003 42.8782 203.58 43.0597 203.257 43.4227C202.934 43.7856 202.772 44.2707 202.772 44.8779C202.772 45.485 202.934 45.9701 203.257 46.3331C203.58 46.696 204.003 46.8775 204.524 46.8775C204.847 46.8775 205.135 46.8016 205.385 46.6498C205.643 46.4981 205.841 46.277 205.979 45.9866H207.84C207.642 46.7389 207.25 47.3329 206.662 47.7685C206.075 48.1974 205.369 48.4119 204.544 48.4119C203.871 48.4119 203.267 48.2634 202.732 47.9665C202.204 47.6629 201.792 47.2438 201.495 46.7092C201.198 46.1747 201.049 45.5642 201.049 44.8779ZM210.688 44.8779C210.688 44.1915 210.836 43.581 211.133 43.0465C211.43 42.5053 211.843 42.0863 212.371 41.7893C212.905 41.4857 213.509 41.3339 214.182 41.3339C215.007 41.3339 215.713 41.5517 216.301 41.9873C216.888 42.4228 217.281 43.0168 217.479 43.7691H215.618C215.479 43.4788 215.281 43.2577 215.024 43.1059C214.773 42.9541 214.486 42.8782 214.162 42.8782C213.641 42.8782 213.219 43.0597 212.895 43.4227C212.572 43.7856 212.41 44.2707 212.41 44.8779C212.41 45.485 212.572 45.9701 212.895 46.3331C213.219 46.696 213.641 46.8775 214.162 46.8775C214.486 46.8775 214.773 46.8016 215.024 46.6498C215.281 46.4981 215.479 46.277 215.618 45.9866H217.479C217.281 46.7389 216.888 47.3329 216.301 47.7685C215.713 48.1974 215.007 48.4119 214.182 48.4119C213.509 48.4119 212.905 48.2634 212.371 47.9665C211.843 47.6629 211.43 47.2438 211.133 46.7092C210.836 46.1747 210.688 45.5642 210.688 44.8779ZM222.059 48.3624L220.614 45.7391H220.208V48.3624H218.515V41.4131H221.356C221.904 41.4131 222.369 41.5088 222.752 41.7002C223.142 41.8916 223.432 42.1555 223.623 42.4921C223.815 42.8221 223.91 43.1917 223.91 43.6008C223.91 44.0628 223.778 44.4753 223.515 44.8383C223.257 45.2012 222.874 45.4586 222.366 45.6104L223.97 48.3624H222.059ZM220.208 44.5413H221.257C221.568 44.5413 221.799 44.4654 221.95 44.3136C222.109 44.1618 222.188 43.9473 222.188 43.6701C222.188 43.4062 222.109 43.1983 221.95 43.0465C221.799 42.8947 221.568 42.8188 221.257 42.8188H220.208V44.5413ZM232.843 41.4131V48.3624H231.15V44.1948L229.596 48.3624H228.23L226.666 44.1849V48.3624H224.973V41.4131H226.973L228.923 46.2242L230.853 41.4131H232.843Z" fill="black"/>
<path d="M221.933 14.7321V13.8393C221.933 13.346 221.534 12.9464 221.04 12.9464H205.415V10.7143H209.433C210.419 10.7143 211.219 9.91461 211.219 8.92856V1.78572C211.219 0.799678 210.419 1.52588e-05 209.433 1.52588e-05H198.719C197.733 1.52588e-05 196.933 0.799678 196.933 1.78572V8.92856C196.933 9.91461 197.733 10.7143 198.719 10.7143H202.737V12.9464H187.112C186.618 12.9464 186.219 13.346 186.219 13.8393V14.7321C186.219 15.2254 186.618 15.625 187.112 15.625H192.915V17.8571H189.79C188.804 17.8571 188.005 18.6568 188.005 19.6428V26.7856C188.005 27.7717 188.804 28.5714 189.79 28.5714H198.719C199.705 28.5714 200.505 27.7717 200.505 26.7856V19.6428C200.505 18.6568 199.705 17.8571 198.719 17.8571H195.594V15.625H212.558V17.8571H209.433C208.447 17.8571 207.647 18.6568 207.647 19.6428V26.7856C207.647 27.7717 208.447 28.5714 209.433 28.5714H218.362C219.348 28.5714 220.147 27.7717 220.147 26.7856V19.6428C220.147 18.6568 219.348 17.8571 218.362 17.8571H215.237V15.625H221.04C221.534 15.625 221.933 15.2254 221.933 14.7321ZM200.505 7.14285V3.57143H207.647V7.14285H200.505ZM196.933 24.9999H191.576V21.4285H196.933V24.9999ZM216.576 24.9999H211.219V21.4285H216.576V24.9999Z" fill="black"/>
<path d="M266.14 41.4131V48.3624H264.447V41.4131H266.14ZM270.732 42.7792C271.379 42.7792 271.894 42.9904 272.276 43.4128C272.666 43.8285 272.86 44.4027 272.86 45.1352V48.3624H271.178V45.3629C271.178 44.9934 271.082 44.7063 270.891 44.5017C270.699 44.2971 270.442 44.1948 270.118 44.1948C269.795 44.1948 269.538 44.2971 269.346 44.5017C269.155 44.7063 269.059 44.9934 269.059 45.3629V48.3624H267.366V42.8386H269.059V43.5711C269.231 43.327 269.462 43.1356 269.752 42.997C270.042 42.8518 270.369 42.7792 270.732 42.7792ZM277.116 46.927V48.3624H276.254C275.641 48.3624 275.162 48.2139 274.819 47.917C274.476 47.6134 274.304 47.1217 274.304 46.442V44.2443H273.631V42.8386H274.304V41.4923H275.997V42.8386H277.106V44.2443H275.997V46.4618C275.997 46.6267 276.036 46.7455 276.116 46.8181C276.195 46.8907 276.327 46.927 276.512 46.927H277.116ZM283.265 45.5114C283.265 45.6698 283.256 45.8348 283.236 46.0064H279.405C279.431 46.3496 279.54 46.6135 279.731 46.7983C279.929 46.9765 280.17 47.0656 280.454 47.0656C280.876 47.0656 281.17 46.8874 281.335 46.5311H283.137C283.044 46.894 282.876 47.2207 282.632 47.5111C282.394 47.8015 282.094 48.0291 281.731 48.1941C281.368 48.3591 280.962 48.4416 280.513 48.4416C279.972 48.4416 279.491 48.3261 279.068 48.0951C278.646 47.8642 278.316 47.5342 278.078 47.1052C277.841 46.6762 277.722 46.1747 277.722 45.6005C277.722 45.0264 277.837 44.5248 278.068 44.0958C278.306 43.6668 278.636 43.3369 279.058 43.1059C279.481 42.8749 279.966 42.7594 280.513 42.7594C281.048 42.7594 281.523 42.8716 281.939 43.096C282.355 43.3204 282.678 43.6404 282.909 44.0562C283.147 44.472 283.265 44.9571 283.265 45.5114ZM281.533 45.0659C281.533 44.7756 281.434 44.5446 281.236 44.373C281.038 44.2014 280.791 44.1156 280.494 44.1156C280.21 44.1156 279.969 44.1981 279.771 44.3631C279.58 44.5281 279.461 44.7624 279.415 45.0659H281.533ZM285.851 43.7592C286.049 43.4557 286.297 43.2181 286.594 43.0465C286.891 42.8683 287.221 42.7792 287.584 42.7792V44.571H287.118C286.696 44.571 286.379 44.6634 286.168 44.8482C285.957 45.0264 285.851 45.3431 285.851 45.7985V48.3624H284.158V42.8386H285.851V43.7592ZM288.056 45.5906C288.056 45.0231 288.162 44.5248 288.373 44.0958C288.591 43.6668 288.884 43.3369 289.254 43.1059C289.624 42.8749 290.036 42.7594 290.491 42.7594C290.881 42.7594 291.221 42.8386 291.511 42.997C291.808 43.1554 292.036 43.3633 292.194 43.6206V42.8386H293.887V48.3624H292.194V47.5804C292.029 47.8378 291.798 48.0456 291.501 48.204C291.211 48.3624 290.871 48.4416 290.482 48.4416C290.033 48.4416 289.624 48.3261 289.254 48.0951C288.884 47.8576 288.591 47.5243 288.373 47.0953C288.162 46.6597 288.056 46.1582 288.056 45.5906ZM292.194 45.6005C292.194 45.1781 292.075 44.8449 291.838 44.6007C291.607 44.3565 291.323 44.2344 290.986 44.2344C290.65 44.2344 290.363 44.3565 290.125 44.6007C289.894 44.8383 289.779 45.1682 289.779 45.5906C289.779 46.013 289.894 46.3496 290.125 46.6003C290.363 46.8445 290.65 46.9666 290.986 46.9666C291.323 46.9666 291.607 46.8445 291.838 46.6003C292.075 46.3562 292.194 46.0229 292.194 45.6005ZM294.775 45.6005C294.775 45.0264 294.89 44.5248 295.121 44.0958C295.359 43.6668 295.686 43.3369 296.102 43.1059C296.524 42.8749 297.006 42.7594 297.547 42.7594C298.24 42.7594 298.817 42.9409 299.279 43.3039C299.748 43.6668 300.055 44.1783 300.2 44.8383H298.398C298.246 44.4159 297.953 44.2047 297.517 44.2047C297.207 44.2047 296.959 44.3268 296.775 44.571C296.59 44.8086 296.497 45.1517 296.497 45.6005C296.497 46.0493 296.59 46.3958 296.775 46.6399C296.959 46.8775 297.207 46.9963 297.517 46.9963C297.953 46.9963 298.246 46.7851 298.398 46.3628H300.2C300.055 47.0095 299.748 47.5177 299.279 47.8873C298.811 48.2568 298.233 48.4416 297.547 48.4416C297.006 48.4416 296.524 48.3261 296.102 48.0951C295.686 47.8642 295.359 47.5342 295.121 47.1052C294.89 46.6762 294.775 46.1747 294.775 45.6005ZM304.184 46.927V48.3624H303.323C302.709 48.3624 302.231 48.2139 301.887 47.917C301.544 47.6134 301.373 47.1217 301.373 46.442V44.2443H300.699V42.8386H301.373V41.4923H303.065V42.8386H304.174V44.2443H303.065V46.4618C303.065 46.6267 303.105 46.7455 303.184 46.8181C303.263 46.8907 303.395 46.927 303.58 46.927H304.184ZM305.978 42.2644C305.681 42.2644 305.437 42.1786 305.246 42.0071C305.061 41.8289 304.969 41.6111 304.969 41.3537C304.969 41.0897 305.061 40.8719 305.246 40.7003C305.437 40.5222 305.681 40.4331 305.978 40.4331C306.269 40.4331 306.506 40.5222 306.691 40.7003C306.882 40.8719 306.978 41.0897 306.978 41.3537C306.978 41.6111 306.882 41.8289 306.691 42.0071C306.506 42.1786 306.269 42.2644 305.978 42.2644ZM306.82 42.8386V48.3624H305.127V42.8386H306.82ZM310.531 46.7785L311.729 42.8386H313.531L311.571 48.3624H309.482L307.522 42.8386H309.333L310.531 46.7785ZM319.45 45.5114C319.45 45.6698 319.44 45.8348 319.421 46.0064H315.589C315.616 46.3496 315.725 46.6135 315.916 46.7983C316.114 46.9765 316.355 47.0656 316.639 47.0656C317.061 47.0656 317.355 46.8874 317.52 46.5311H319.322C319.229 46.894 319.061 47.2207 318.817 47.5111C318.579 47.8015 318.279 48.0291 317.916 48.1941C317.553 48.3591 317.147 48.4416 316.698 48.4416C316.157 48.4416 315.675 48.3261 315.253 48.0951C314.831 47.8642 314.501 47.5342 314.263 47.1052C314.025 46.6762 313.907 46.1747 313.907 45.6005C313.907 45.0264 314.022 44.5248 314.253 44.0958C314.491 43.6668 314.821 43.3369 315.243 43.1059C315.665 42.8749 316.15 42.7594 316.698 42.7594C317.233 42.7594 317.708 42.8716 318.124 43.096C318.539 43.3204 318.863 43.6404 319.094 44.0562C319.331 44.472 319.45 44.9571 319.45 45.5114ZM317.718 45.0659C317.718 44.7756 317.619 44.5446 317.421 44.373C317.223 44.2014 316.975 44.1156 316.678 44.1156C316.395 44.1156 316.154 44.1981 315.956 44.3631C315.764 44.5281 315.646 44.7624 315.599 45.0659H317.718ZM330.311 41.4131V48.3624H328.618V44.1948L327.064 48.3624H325.698L324.134 44.1849V48.3624H322.441V41.4131H324.441L326.391 46.2242L328.321 41.4131H330.311ZM331.192 45.5906C331.192 45.0231 331.297 44.5248 331.509 44.0958C331.726 43.6668 332.02 43.3369 332.39 43.1059C332.759 42.8749 333.172 42.7594 333.627 42.7594C334.016 42.7594 334.356 42.8386 334.647 42.997C334.944 43.1554 335.171 43.3633 335.33 43.6206V42.8386H337.022V48.3624H335.33V47.5804C335.165 47.8378 334.934 48.0456 334.637 48.204C334.346 48.3624 334.006 48.4416 333.617 48.4416C333.168 48.4416 332.759 48.3261 332.39 48.0951C332.02 47.8576 331.726 47.5243 331.509 47.0953C331.297 46.6597 331.192 46.1582 331.192 45.5906ZM335.33 45.6005C335.33 45.1781 335.211 44.8449 334.973 44.6007C334.742 44.3565 334.459 44.2344 334.122 44.2344C333.785 44.2344 333.498 44.3565 333.261 44.6007C333.03 44.8383 332.914 45.1682 332.914 45.5906C332.914 46.013 333.03 46.3496 333.261 46.6003C333.498 46.8445 333.785 46.9666 334.122 46.9666C334.459 46.9666 334.742 46.8445 334.973 46.6003C335.211 46.3562 335.33 46.0229 335.33 45.6005ZM339.94 43.6206C340.105 43.3633 340.333 43.1554 340.623 42.997C340.913 42.8386 341.253 42.7594 341.643 42.7594C342.098 42.7594 342.51 42.8749 342.88 43.1059C343.25 43.3369 343.54 43.6668 343.751 44.0958C343.969 44.5248 344.078 45.0231 344.078 45.5906C344.078 46.1582 343.969 46.6597 343.751 47.0953C343.54 47.5243 343.25 47.8576 342.88 48.0951C342.51 48.3261 342.098 48.4416 341.643 48.4416C341.26 48.4416 340.92 48.3624 340.623 48.204C340.333 48.0456 340.105 47.8411 339.94 47.5903V50.9956H338.247V42.8386H339.94V43.6206ZM342.355 45.5906C342.355 45.1682 342.237 44.8383 341.999 44.6007C341.768 44.3565 341.481 44.2344 341.138 44.2344C340.801 44.2344 340.514 44.3565 340.276 44.6007C340.046 44.8449 339.93 45.1781 339.93 45.6005C339.93 46.0229 340.046 46.3562 340.276 46.6003C340.514 46.8445 340.801 46.9666 341.138 46.9666C341.474 46.9666 341.761 46.8445 341.999 46.6003C342.237 46.3496 342.355 46.013 342.355 45.5906Z" fill="black"/>
<path d="M303.801 1.52588e-05C299.918 1.52588e-05 296.77 3.14789 296.77 7.03124C296.77 10.1707 301.365 15.8928 303.126 17.9698C303.483 18.3906 304.12 18.3906 304.476 17.9698C306.237 15.8928 310.832 10.1707 310.832 7.03124C310.832 3.14789 307.685 1.52588e-05 303.801 1.52588e-05ZM303.801 9.37499C302.507 9.37499 301.457 8.32588 301.457 7.03124C301.457 5.73661 302.507 4.6875 303.801 4.6875C305.096 4.6875 306.145 5.73661 306.145 7.03124C306.145 8.32588 305.096 9.37499 303.801 9.37499ZM288.853 12.0508C288.521 12.1833 288.237 12.4121 288.037 12.7076C287.837 13.0031 287.73 13.3518 287.73 13.7087V27.6774C287.73 28.3091 288.368 28.741 288.954 28.5066L296.658 24.9999V11.9933C296.165 11.1015 295.762 10.2332 295.473 9.40289L288.853 12.0508ZM303.801 20.0708C303.016 20.0708 302.273 19.726 301.764 19.1244C300.667 17.8298 299.5 16.3554 298.444 14.8432V24.9994L309.158 28.5708V14.8437C308.103 16.3554 306.936 17.8303 305.839 19.125C305.329 19.726 304.586 20.0708 303.801 20.0708ZM318.648 8.99329L310.944 12.5V28.5714L318.75 25.4492C319.081 25.3167 319.365 25.0879 319.566 24.7924C319.766 24.4969 319.873 24.1482 319.873 23.7912V9.82253C319.873 9.19084 319.235 8.75892 318.648 8.99329Z" fill="black"/>
<path d="M376.127 47.0557H378.344V48.3624H374.434V41.4131H376.127V47.0557ZM380.003 42.2644C379.706 42.2644 379.462 42.1786 379.27 42.0071C379.086 41.8289 378.993 41.6111 378.993 41.3537C378.993 41.0897 379.086 40.8719 379.27 40.7003C379.462 40.5222 379.706 40.4331 380.003 40.4331C380.293 40.4331 380.531 40.5222 380.716 40.7003C380.907 40.8719 381.003 41.0897 381.003 41.3537C381.003 41.6111 380.907 41.8289 380.716 42.0071C380.531 42.1786 380.293 42.2644 380.003 42.2644ZM380.844 42.8386V48.3624H379.152V42.8386H380.844ZM385.437 42.7792C386.084 42.7792 386.598 42.9904 386.981 43.4128C387.371 43.8285 387.565 44.4027 387.565 45.1352V48.3624H385.882V45.3629C385.882 44.9934 385.787 44.7063 385.595 44.5017C385.404 44.2971 385.147 44.1948 384.823 44.1948C384.5 44.1948 384.242 44.2971 384.051 44.5017C383.86 44.7063 383.764 44.9934 383.764 45.3629V48.3624H382.071V42.8386H383.764V43.5711C383.936 43.327 384.167 43.1356 384.457 42.997C384.747 42.8518 385.074 42.7792 385.437 42.7792ZM392.117 48.3624L390.434 46.046V48.3624H388.742V41.0369H390.434V45.0857L392.107 42.8386H394.196L391.899 45.6104L394.216 48.3624H392.117ZM400.068 45.5114C400.068 45.6698 400.058 45.8348 400.038 46.0064H396.207C396.234 46.3496 396.343 46.6135 396.534 46.7983C396.732 46.9765 396.973 47.0656 397.257 47.0656C397.679 47.0656 397.973 46.8874 398.138 46.5311H399.939C399.847 46.894 399.679 47.2207 399.435 47.5111C399.197 47.8015 398.897 48.0291 398.534 48.1941C398.171 48.3591 397.765 48.4416 397.316 48.4416C396.775 48.4416 396.293 48.3261 395.871 48.0951C395.448 47.8642 395.118 47.5342 394.881 47.1052C394.643 46.6762 394.524 46.1747 394.524 45.6005C394.524 45.0264 394.64 44.5248 394.871 44.0958C395.109 43.6668 395.438 43.3369 395.861 43.1059C396.283 42.8749 396.768 42.7594 397.316 42.7594C397.851 42.7594 398.326 42.8716 398.742 43.096C399.157 43.3204 399.481 43.6404 399.712 44.0562C399.949 44.472 400.068 44.9571 400.068 45.5114ZM398.336 45.0659C398.336 44.7756 398.237 44.5446 398.039 44.373C397.841 44.2014 397.593 44.1156 397.296 44.1156C397.012 44.1156 396.772 44.1981 396.574 44.3631C396.382 44.5281 396.263 44.7624 396.217 45.0659H398.336ZM400.625 45.5906C400.625 45.0231 400.73 44.5248 400.941 44.0958C401.159 43.6668 401.453 43.3369 401.822 43.1059C402.192 42.8749 402.604 42.7594 403.06 42.7594C403.423 42.7594 403.753 42.8353 404.05 42.9871C404.353 43.1389 404.591 43.3435 404.762 43.6008V41.0369H406.455V48.3624H404.762V47.5705C404.604 47.8345 404.376 48.0456 404.079 48.204C403.789 48.3624 403.449 48.4416 403.06 48.4416C402.604 48.4416 402.192 48.3261 401.822 48.0951C401.453 47.8576 401.159 47.5243 400.941 47.0953C400.73 46.6597 400.625 46.1582 400.625 45.5906ZM404.762 45.6005C404.762 45.1781 404.644 44.8449 404.406 44.6007C404.175 44.3565 403.891 44.2344 403.555 44.2344C403.218 44.2344 402.931 44.3565 402.693 44.6007C402.462 44.8383 402.347 45.1682 402.347 45.5906C402.347 46.013 402.462 46.3496 402.693 46.6003C402.931 46.8445 403.218 46.9666 403.555 46.9666C403.891 46.9666 404.175 46.8445 404.406 46.6003C404.644 46.3562 404.762 46.0229 404.762 45.6005ZM412.381 41.4131C413.114 41.4131 413.754 41.5583 414.302 41.8487C414.849 42.139 415.272 42.5482 415.569 43.0762C415.872 43.5975 416.024 44.2014 416.024 44.8878C416.024 45.5675 415.872 46.1714 415.569 46.6993C415.272 47.2273 414.846 47.6365 414.292 47.9269C413.744 48.2172 413.107 48.3624 412.381 48.3624H409.778V41.4131H412.381ZM412.272 46.8973C412.912 46.8973 413.411 46.7224 413.767 46.3727C414.123 46.0229 414.302 45.5279 414.302 44.8878C414.302 44.2476 414.123 43.7493 413.767 43.393C413.411 43.0366 412.912 42.8584 412.272 42.8584H411.47V46.8973H412.272ZM416.634 45.5906C416.634 45.0231 416.739 44.5248 416.95 44.0958C417.168 43.6668 417.462 43.3369 417.831 43.1059C418.201 42.8749 418.613 42.7594 419.069 42.7594C419.458 42.7594 419.798 42.8386 420.088 42.997C420.385 43.1554 420.613 43.3633 420.772 43.6206V42.8386H422.464V48.3624H420.772V47.5804C420.607 47.8378 420.376 48.0456 420.079 48.204C419.788 48.3624 419.448 48.4416 419.059 48.4416C418.61 48.4416 418.201 48.3261 417.831 48.0951C417.462 47.8576 417.168 47.5243 416.95 47.0953C416.739 46.6597 416.634 46.1582 416.634 45.5906ZM420.772 45.6005C420.772 45.1781 420.653 44.8449 420.415 44.6007C420.184 44.3565 419.9 44.2344 419.564 44.2344C419.227 44.2344 418.94 44.3565 418.703 44.6007C418.472 44.8383 418.356 45.1682 418.356 45.5906C418.356 46.013 418.472 46.3496 418.703 46.6003C418.94 46.8445 419.227 46.9666 419.564 46.9666C419.9 46.9666 420.184 46.8445 420.415 46.6003C420.653 46.3562 420.772 46.0229 420.772 45.6005ZM426.768 46.927V48.3624H425.906C425.293 48.3624 424.814 48.2139 424.471 47.917C424.128 47.6134 423.956 47.1217 423.956 46.442V44.2443H423.283V42.8386H423.956V41.4923H425.649V42.8386H426.758V44.2443H425.649V46.4618C425.649 46.6267 425.689 46.7455 425.768 46.8181C425.847 46.8907 425.979 46.927 426.164 46.927H426.768ZM427.374 45.5906C427.374 45.0231 427.48 44.5248 427.691 44.0958C427.909 43.6668 428.202 43.3369 428.572 43.1059C428.941 42.8749 429.354 42.7594 429.809 42.7594C430.199 42.7594 430.538 42.8386 430.829 42.997C431.126 43.1554 431.354 43.3633 431.512 43.6206V42.8386H433.205V48.3624H431.512V47.5804C431.347 47.8378 431.116 48.0456 430.819 48.204C430.529 48.3624 430.189 48.4416 429.799 48.4416C429.351 48.4416 428.941 48.3261 428.572 48.0951C428.202 47.8576 427.909 47.5243 427.691 47.0953C427.48 46.6597 427.374 46.1582 427.374 45.5906ZM431.512 45.6005C431.512 45.1781 431.393 44.8449 431.156 44.6007C430.925 44.3565 430.641 44.2344 430.304 44.2344C429.968 44.2344 429.681 44.3565 429.443 44.6007C429.212 44.8383 429.096 45.1682 429.096 45.5906C429.096 46.013 429.212 46.3496 429.443 46.6003C429.681 46.8445 429.968 46.9666 430.304 46.9666C430.641 46.9666 430.925 46.8445 431.156 46.6003C431.393 46.3562 431.512 46.0229 431.512 45.6005Z" fill="black"/>
<path d="M408.628 8.75575C407.793 3.61176 405.823 1.52588e-05 403.529 1.52588e-05C401.236 1.52588e-05 399.266 3.61176 398.431 8.75575H408.628ZM397.998 14.2857C397.998 15.5645 398.068 16.7914 398.189 17.9723H408.865C408.986 16.7914 409.055 15.5645 409.055 14.2857C409.055 13.0069 408.986 11.7799 408.865 10.5991H398.189C398.068 11.7799 397.998 13.0069 397.998 14.2857ZM416.706 8.75575C415.058 4.84447 411.722 1.82029 407.603 0.599092C409.009 2.54609 409.977 5.47811 410.484 8.75575H416.706ZM399.45 0.599092C395.337 1.82029 391.995 4.84447 390.353 8.75575H396.575C397.077 5.47811 398.044 2.54609 399.45 0.599092ZM417.323 10.5991H410.714C410.835 11.8087 410.904 13.0472 410.904 14.2857C410.904 15.5242 410.835 16.7626 410.714 17.9723H417.317C417.634 16.7914 417.812 15.5645 417.812 14.2857C417.812 13.0069 417.634 11.7799 417.323 10.5991ZM396.155 14.2857C396.155 13.0472 396.224 11.8087 396.345 10.5991H389.736C389.425 11.7799 389.241 13.0069 389.241 14.2857C389.241 15.5645 389.425 16.7914 389.736 17.9723H396.339C396.224 16.7626 396.155 15.5242 396.155 14.2857ZM398.431 19.8156C399.266 24.9596 401.236 28.5714 403.529 28.5714C405.823 28.5714 407.793 24.9596 408.628 19.8156H398.431ZM407.609 27.9723C411.722 26.7511 415.064 23.7269 416.712 19.8156H410.489C409.982 23.0933 409.014 26.0253 407.609 27.9723ZM390.353 19.8156C392.001 23.7269 395.337 26.7511 399.456 27.9723C398.05 26.0253 397.082 23.0933 396.575 19.8156H390.353Z" fill="black"/>
<path d="M480.776 41.4131V42.7693H477.945V44.2344H480.063V45.551H477.945V48.3624H476.252V41.4131H480.776ZM482.517 42.2644C482.22 42.2644 481.976 42.1786 481.785 42.0071C481.6 41.8289 481.508 41.6111 481.508 41.3537C481.508 41.0897 481.6 40.8719 481.785 40.7003C481.976 40.5222 482.22 40.4331 482.517 40.4331C482.808 40.4331 483.045 40.5222 483.23 40.7003C483.421 40.8719 483.517 41.0897 483.517 41.3537C483.517 41.6111 483.421 41.8289 483.23 42.0071C483.045 42.1786 482.808 42.2644 482.517 42.2644ZM483.359 42.8386V48.3624H481.666V42.8386H483.359ZM486.278 41.0369V48.3624H484.585V41.0369H486.278ZM492.712 45.5114C492.712 45.6698 492.702 45.8348 492.682 46.0064H488.851C488.878 46.3496 488.987 46.6135 489.178 46.7983C489.376 46.9765 489.617 47.0656 489.901 47.0656C490.323 47.0656 490.617 46.8874 490.782 46.5311H492.583C492.491 46.894 492.323 47.2207 492.078 47.5111C491.841 47.8015 491.541 48.0291 491.178 48.1941C490.815 48.3591 490.409 48.4416 489.96 48.4416C489.419 48.4416 488.937 48.3261 488.515 48.0951C488.092 47.8642 487.762 47.5342 487.525 47.1052C487.287 46.6762 487.168 46.1747 487.168 45.6005C487.168 45.0264 487.284 44.5248 487.515 44.0958C487.752 43.6668 488.082 43.3369 488.505 43.1059C488.927 42.8749 489.412 42.7594 489.96 42.7594C490.495 42.7594 490.97 42.8716 491.386 43.096C491.801 43.3204 492.125 43.6404 492.356 44.0562C492.593 44.472 492.712 44.9571 492.712 45.5114ZM490.98 45.0659C490.98 44.7756 490.881 44.5446 490.683 44.373C490.485 44.2014 490.237 44.1156 489.94 44.1156C489.656 44.1156 489.416 44.1981 489.218 44.3631C489.026 44.5281 488.907 44.7624 488.861 45.0659H490.98ZM497.366 41.4131V45.5708C497.366 45.9866 497.468 46.3067 497.673 46.5311C497.877 46.7554 498.178 46.8676 498.574 46.8676C498.97 46.8676 499.273 46.7554 499.484 46.5311C499.696 46.3067 499.801 45.9866 499.801 45.5708V41.4131H501.494V45.5609C501.494 46.1813 501.362 46.7059 501.098 47.1349C500.834 47.5639 500.478 47.8873 500.029 48.105C499.587 48.3228 499.092 48.4317 498.544 48.4317C497.996 48.4317 497.505 48.3261 497.069 48.1149C496.64 47.8972 496.3 47.5738 496.049 47.1448C495.799 46.7092 495.673 46.1813 495.673 45.5609V41.4131H497.366ZM504.375 43.6206C504.54 43.3633 504.768 43.1554 505.059 42.997C505.349 42.8386 505.689 42.7594 506.078 42.7594C506.534 42.7594 506.946 42.8749 507.316 43.1059C507.685 43.3369 507.976 43.6668 508.187 44.0958C508.404 44.5248 508.513 45.0231 508.513 45.5906C508.513 46.1582 508.404 46.6597 508.187 47.0953C507.976 47.5243 507.685 47.8576 507.316 48.0951C506.946 48.3261 506.534 48.4416 506.078 48.4416C505.695 48.4416 505.355 48.3624 505.059 48.204C504.768 48.0456 504.54 47.8411 504.375 47.5903V50.9956H502.683V42.8386H504.375V43.6206ZM506.791 45.5906C506.791 45.1682 506.672 44.8383 506.435 44.6007C506.204 44.3565 505.916 44.2344 505.573 44.2344C505.237 44.2344 504.95 44.3565 504.712 44.6007C504.481 44.8449 504.366 45.1781 504.366 45.6005C504.366 46.0229 504.481 46.3562 504.712 46.6003C504.95 46.8445 505.237 46.9666 505.573 46.9666C505.91 46.9666 506.197 46.8445 506.435 46.6003C506.672 46.3496 506.791 46.013 506.791 45.5906ZM511.094 41.0369V48.3624H509.401V41.0369H511.094ZM514.835 48.4416C514.294 48.4416 513.806 48.3261 513.37 48.0951C512.941 47.8642 512.601 47.5342 512.351 47.1052C512.107 46.6762 511.984 46.1747 511.984 45.6005C511.984 45.033 512.11 44.5347 512.361 44.1057C512.611 43.6701 512.955 43.3369 513.39 43.1059C513.826 42.8749 514.314 42.7594 514.855 42.7594C515.396 42.7594 515.885 42.8749 516.32 43.1059C516.756 43.3369 517.099 43.6701 517.35 44.1057C517.601 44.5347 517.726 45.033 517.726 45.6005C517.726 46.1681 517.597 46.6696 517.34 47.1052C517.089 47.5342 516.743 47.8642 516.301 48.0951C515.865 48.3261 515.377 48.4416 514.835 48.4416ZM514.835 46.9765C515.159 46.9765 515.433 46.8577 515.657 46.6201C515.888 46.3826 516.004 46.0427 516.004 45.6005C516.004 45.1583 515.891 44.8185 515.667 44.5809C515.449 44.3433 515.179 44.2245 514.855 44.2245C514.525 44.2245 514.251 44.3433 514.034 44.5809C513.816 44.8119 513.707 45.1517 513.707 45.6005C513.707 46.0427 513.812 46.3826 514.024 46.6201C514.241 46.8577 514.512 46.9765 514.835 46.9765ZM518.288 45.5906C518.288 45.0231 518.393 44.5248 518.604 44.0958C518.822 43.6668 519.116 43.3369 519.485 43.1059C519.855 42.8749 520.267 42.7594 520.723 42.7594C521.112 42.7594 521.452 42.8386 521.742 42.997C522.039 43.1554 522.267 43.3633 522.425 43.6206V42.8386H524.118V48.3624H522.425V47.5804C522.26 47.8378 522.029 48.0456 521.732 48.204C521.442 48.3624 521.102 48.4416 520.713 48.4416C520.264 48.4416 519.855 48.3261 519.485 48.0951C519.116 47.8576 518.822 47.5243 518.604 47.0953C518.393 46.6597 518.288 46.1582 518.288 45.5906ZM522.425 45.6005C522.425 45.1781 522.307 44.8449 522.069 44.6007C521.838 44.3565 521.554 44.2344 521.218 44.2344C520.881 44.2344 520.594 44.3565 520.356 44.6007C520.125 44.8383 520.01 45.1682 520.01 45.5906C520.01 46.013 520.125 46.3496 520.356 46.6003C520.594 46.8445 520.881 46.9666 521.218 46.9666C521.554 46.9666 521.838 46.8445 522.069 46.6003C522.307 46.3562 522.425 46.0229 522.425 45.6005ZM525.006 45.5906C525.006 45.0231 525.112 44.5248 525.323 44.0958C525.541 43.6668 525.835 43.3369 526.204 43.1059C526.574 42.8749 526.986 42.7594 527.442 42.7594C527.804 42.7594 528.134 42.8353 528.431 42.9871C528.735 43.1389 528.973 43.3435 529.144 43.6008V41.0369H530.837V48.3624H529.144V47.5705C528.986 47.8345 528.758 48.0456 528.461 48.204C528.171 48.3624 527.831 48.4416 527.442 48.4416C526.986 48.4416 526.574 48.3261 526.204 48.0951C525.835 47.8576 525.541 47.5243 525.323 47.0953C525.112 46.6597 525.006 46.1582 525.006 45.5906ZM529.144 45.6005C529.144 45.1781 529.025 44.8449 528.788 44.6007C528.557 44.3565 528.273 44.2344 527.936 44.2344C527.6 44.2344 527.313 44.3565 527.075 44.6007C526.844 44.8383 526.729 45.1682 526.729 45.5906C526.729 46.013 526.844 46.3496 527.075 46.6003C527.313 46.8445 527.6 46.9666 527.936 46.9666C528.273 46.9666 528.557 46.8445 528.788 46.6003C529.025 46.3562 529.144 46.0229 529.144 45.6005Z" fill="black"/>
<path d="M517.359 12.4107C517.616 11.7283 517.761 10.9821 517.761 10.2041C517.761 6.82397 515.061 4.08164 511.734 4.08164C510.497 4.08164 509.342 4.46429 508.388 5.1148C506.649 2.05358 503.403 1.52588e-05 499.68 1.52588e-05C494.131 1.52588e-05 489.636 4.56633 489.636 10.2041C489.636 10.3763 489.642 10.5485 489.648 10.7206C486.133 11.977 483.609 15.3826 483.609 19.3877C483.609 24.4578 487.658 28.5714 492.649 28.5714H515.752C520.19 28.5714 523.787 24.917 523.787 20.4081C523.787 16.4604 521.025 13.1632 517.359 12.4107ZM508.306 16.3265H504.2V23.4693C504.2 24.0306 503.748 24.4897 503.196 24.4897H500.183C499.63 24.4897 499.178 24.0306 499.178 23.4693V16.3265H495.072C494.175 16.3265 493.729 15.2296 494.363 14.5854L500.98 7.86351C501.369 7.4681 502.01 7.4681 502.399 7.86351L509.016 14.5854C509.65 15.2296 509.198 16.3265 508.306 16.3265Z" fill="black"/>
<path d="M6.24145 36.4131V40.5708C6.24145 40.9866 6.34374 41.3067 6.54833 41.5311C6.75292 41.7554 7.0532 41.8676 7.44917 41.8676C7.84514 41.8676 8.14872 41.7554 8.35991 41.5311C8.57109 41.3067 8.67669 40.9866 8.67669 40.5708V36.4131H10.3695V40.5609C10.3695 41.1813 10.2375 41.7059 9.9735 42.1349C9.70952 42.5639 9.35314 42.8873 8.90437 43.105C8.4622 43.3228 7.96723 43.4317 7.41947 43.4317C6.87171 43.4317 6.38004 43.3261 5.94447 43.1149C5.5155 42.8972 5.17562 42.5738 4.92484 42.1448C4.67406 41.7092 4.54866 41.1813 4.54866 40.5609V36.4131H6.24145ZM13.8053 43.4416C13.3235 43.4416 12.8946 43.3591 12.5184 43.1941C12.1422 43.0291 11.8452 42.8048 11.6275 42.521C11.4097 42.2306 11.2876 41.9072 11.2612 41.5508H12.9342C12.954 41.7422 13.0431 41.8973 13.2015 42.0161C13.3598 42.1349 13.5545 42.1943 13.7855 42.1943C13.9967 42.1943 14.1584 42.1547 14.2706 42.0755C14.3894 41.9897 14.4488 41.8808 14.4488 41.7488C14.4488 41.5904 14.3663 41.475 14.2013 41.4024C14.0363 41.3232 13.769 41.2374 13.3994 41.145C13.0035 41.0526 12.6735 40.9569 12.4095 40.8579C12.1455 40.7523 11.9178 40.5906 11.7265 40.3728C11.5351 40.1484 11.4394 39.8482 11.4394 39.472C11.4394 39.1552 11.5252 38.8681 11.6968 38.6107C11.8749 38.3468 12.1323 38.1389 12.4689 37.9871C12.8121 37.8353 13.218 37.7594 13.6865 37.7594C14.3795 37.7594 14.9239 37.931 15.3199 38.2742C15.7225 38.6173 15.9535 39.0727 16.0129 39.6403H14.4488C14.4224 39.4489 14.3366 39.2971 14.1914 39.1849C14.0528 39.0727 13.868 39.0166 13.637 39.0166C13.439 39.0166 13.2872 39.0562 13.1817 39.1354C13.0761 39.208 13.0233 39.3103 13.0233 39.4423C13.0233 39.6007 13.1058 39.7195 13.2707 39.7987C13.4423 39.8779 13.7063 39.9571 14.0627 40.0363C14.4719 40.1418 14.8051 40.2474 15.0625 40.353C15.3199 40.452 15.5443 40.617 15.7357 40.848C15.9337 41.0724 16.036 41.376 16.0426 41.7587C16.0426 42.0821 15.9502 42.3725 15.7654 42.6299C15.5872 42.8807 15.3265 43.0786 14.9833 43.2238C14.6468 43.369 14.2541 43.4416 13.8053 43.4416ZM22.2853 40.5114C22.2853 40.6698 22.2754 40.8348 22.2556 41.0064H18.4245C18.4509 41.3496 18.5598 41.6135 18.7512 41.7983C18.9492 41.9765 19.1901 42.0656 19.4738 42.0656C19.8962 42.0656 20.1899 41.8874 20.3549 41.5311H22.1566C22.0642 41.894 21.8959 42.2207 21.6517 42.5111C21.4141 42.8015 21.1138 43.0291 20.7509 43.1941C20.3879 43.3591 19.982 43.4416 19.5332 43.4416C18.9921 43.4416 18.5103 43.3261 18.0879 43.0951C17.6656 42.8642 17.3356 42.5342 17.098 42.1052C16.8604 41.6762 16.7416 41.1747 16.7416 40.6005C16.7416 40.0264 16.8571 39.5248 17.0881 39.0958C17.3257 38.6668 17.6557 38.3369 18.078 38.1059C18.5004 37.8749 18.9855 37.7594 19.5332 37.7594C20.0678 37.7594 20.543 37.8716 20.9587 38.096C21.3745 38.3204 21.6979 38.6404 21.9289 39.0562C22.1665 39.472 22.2853 39.9571 22.2853 40.5114ZM20.5529 40.0659C20.5529 39.7756 20.4539 39.5446 20.2559 39.373C20.0579 39.2014 19.8104 39.1156 19.5134 39.1156C19.2297 39.1156 18.9888 39.1981 18.7908 39.3631C18.5994 39.5281 18.4806 39.7624 18.4344 40.0659H20.5529ZM24.8711 38.7592C25.0691 38.4557 25.3165 38.2181 25.6135 38.0465C25.9105 37.8683 26.2405 37.7792 26.6034 37.7792V39.571H26.1382C25.7158 39.571 25.399 39.6634 25.1878 39.8482C24.9767 40.0264 24.8711 40.3431 24.8711 40.7985V43.3624H23.1783V37.8386H24.8711V38.7592ZM29.6597 43.4416C29.1779 43.4416 28.749 43.3591 28.3728 43.1941C27.9966 43.0291 27.6996 42.8048 27.4819 42.521C27.2641 42.2306 27.142 41.9072 27.1156 41.5508H28.7886C28.8084 41.7422 28.8975 41.8973 29.0559 42.0161C29.2142 42.1349 29.4089 42.1943 29.6399 42.1943C29.8511 42.1943 30.0128 42.1547 30.125 42.0755C30.2438 41.9897 30.3032 41.8808 30.3032 41.7488C30.3032 41.5904 30.2207 41.475 30.0557 41.4024C29.8907 41.3232 29.6234 41.2374 29.2538 41.145C28.8579 41.0526 28.5279 40.9569 28.2639 40.8579C27.9999 40.7523 27.7722 40.5906 27.5809 40.3728C27.3895 40.1484 27.2938 39.8482 27.2938 39.472C27.2938 39.1552 27.3796 38.8681 27.5512 38.6107C27.7293 38.3468 27.9867 38.1389 28.3233 37.9871C28.6665 37.8353 29.0724 37.7594 29.5409 37.7594C30.2339 37.7594 30.7783 37.931 31.1743 38.2742C31.5769 38.6173 31.8079 39.0727 31.8673 39.6403H30.3032C30.2768 39.4489 30.191 39.2971 30.0458 39.1849C29.9072 39.0727 29.7224 39.0166 29.4914 39.0166C29.2934 39.0166 29.1416 39.0562 29.0361 39.1354C28.9305 39.208 28.8777 39.3103 28.8777 39.4423C28.8777 39.6007 28.9602 39.7195 29.1251 39.7987C29.2967 39.8779 29.5607 39.9571 29.9171 40.0363C30.3263 40.1418 30.6595 40.2474 30.9169 40.353C31.1743 40.452 31.3987 40.617 31.5901 40.848C31.7881 41.0724 31.8904 41.376 31.897 41.7587C31.897 42.0821 31.8046 42.3725 31.6198 42.6299C31.4416 42.8807 31.1809 43.0786 30.8377 43.2238C30.5012 43.369 30.1085 43.4416 29.6597 43.4416ZM40.3463 43.3624L39.7029 42.7388C39.0627 43.2271 38.2972 43.4713 37.4062 43.4713C36.8717 43.4713 36.4064 43.3855 36.0104 43.2139C35.6145 43.0357 35.3076 42.7883 35.0898 42.4715C34.8786 42.1481 34.773 41.7719 34.773 41.343C34.773 40.9074 34.8885 40.5147 35.1195 40.1649C35.3571 39.8086 35.7102 39.5182 36.1787 39.2938C36.0071 39.0826 35.885 38.8813 35.8125 38.6899C35.7399 38.492 35.7036 38.2775 35.7036 38.0465C35.7036 37.7165 35.7894 37.4162 35.9609 37.1456C36.1325 36.8751 36.38 36.6639 36.7034 36.5121C37.0334 36.3537 37.4227 36.2745 37.8715 36.2745C38.3269 36.2745 38.713 36.357 39.0297 36.522C39.3465 36.687 39.5841 36.9081 39.7425 37.1852C39.9009 37.4624 39.9735 37.766 39.9603 38.096H38.3665C38.3731 37.9178 38.3269 37.7825 38.2279 37.6901C38.1355 37.5911 38.0101 37.5416 37.8517 37.5416C37.6933 37.5416 37.5613 37.5878 37.4557 37.6802C37.3502 37.7726 37.2974 37.8914 37.2974 38.0366C37.2974 38.1752 37.3403 38.3204 37.426 38.4722C37.5184 38.6239 37.6603 38.7988 37.8517 38.9968L39.5445 40.65C39.5577 40.617 39.5742 40.5774 39.594 40.5312C39.6204 40.485 39.6468 40.4322 39.6732 40.3728L40.0395 39.7492H41.7323L41.2571 40.6104C41.0789 40.9998 40.8743 41.3694 40.6433 41.7191L42.3163 43.3624H40.3463ZM37.4854 42.1052C37.9276 42.1052 38.3203 41.9798 38.6635 41.729L37.1192 40.2342C36.644 40.4784 36.4064 40.8084 36.4064 41.2242C36.4064 41.475 36.5021 41.6861 36.6935 41.8577C36.8915 42.0227 37.1555 42.1052 37.4854 42.1052ZM9.873 48.6107C9.7476 48.3798 9.56612 48.2049 9.32853 48.0861C9.09755 47.9607 8.82367 47.898 8.50689 47.898C7.95913 47.898 7.52025 48.0795 7.19028 48.4425C6.8603 48.7988 6.69531 49.2773 6.69531 49.8779C6.69531 50.518 6.8669 51.0196 7.21008 51.3826C7.55985 51.7389 8.03832 51.9171 8.64548 51.9171C9.06125 51.9171 9.41103 51.8115 9.69481 51.6003C9.98519 51.3892 10.1964 51.0856 10.3284 50.6896H8.18021V49.4423H11.8628V51.0163C11.7374 51.4387 11.5229 51.8313 11.2193 52.1943C10.9223 52.5573 10.5429 52.851 10.0809 53.0753C9.61891 53.2997 9.09755 53.4119 8.51679 53.4119C7.83043 53.4119 7.21668 53.2634 6.67551 52.9665C6.14095 52.6629 5.72188 52.2438 5.4183 51.7092C5.12132 51.1747 4.97283 50.5642 4.97283 49.8779C4.97283 49.1915 5.12132 48.581 5.4183 48.0465C5.72188 47.5053 6.14095 47.0863 6.67551 46.7893C7.21008 46.4857 7.82053 46.3339 8.50689 46.3339C9.33843 46.3339 10.038 46.5352 10.6055 46.9378C11.1797 47.3403 11.5592 47.898 11.744 48.6107H9.873ZM14.4932 48.7592C14.6912 48.4557 14.9387 48.2181 15.2356 48.0465C15.5326 47.8683 15.8626 47.7792 16.2256 47.7792V49.571H15.7603C15.3379 49.571 15.0212 49.6634 14.81 49.8482C14.5988 50.0264 14.4932 50.3431 14.4932 50.7985V53.3624H12.8004V47.8386H14.4932V48.7592ZM19.5491 53.4416C19.008 53.4416 18.5196 53.3261 18.084 53.0951C17.6551 52.8642 17.3152 52.5342 17.0644 52.1052C16.8202 51.6762 16.6981 51.1747 16.6981 50.6005C16.6981 50.033 16.8235 49.5347 17.0743 49.1057C17.3251 48.6701 17.6683 48.3369 18.1038 48.1059C18.5394 47.8749 19.0278 47.7594 19.5689 47.7594C20.1101 47.7594 20.5985 47.8749 21.034 48.1059C21.4696 48.3369 21.8128 48.6701 22.0636 49.1057C22.3143 49.5347 22.4397 50.033 22.4397 50.6005C22.4397 51.1681 22.311 51.6696 22.0537 52.1052C21.8029 52.5342 21.4564 52.8642 21.0142 53.0951C20.5787 53.3261 20.0903 53.4416 19.5491 53.4416ZM19.5491 51.9765C19.8725 51.9765 20.1464 51.8577 20.3708 51.6201C20.6018 51.3826 20.7173 51.0427 20.7173 50.6005C20.7173 50.1583 20.6051 49.8185 20.3807 49.5809C20.1629 49.3433 19.8923 49.2245 19.5689 49.2245C19.239 49.2245 18.9651 49.3433 18.7473 49.5809C18.5295 49.8119 18.4206 50.1517 18.4206 50.6005C18.4206 51.0427 18.5262 51.3826 18.7374 51.6201C18.9552 51.8577 19.2258 51.9765 19.5491 51.9765ZM28.7923 47.8386V53.3624H27.0995V52.6101C26.9279 52.8543 26.6937 53.0522 26.3967 53.204C26.1063 53.3492 25.7829 53.4218 25.4265 53.4218C25.0042 53.4218 24.6313 53.3294 24.3079 53.1446C23.9845 52.9533 23.7338 52.6794 23.5556 52.323C23.3774 51.9666 23.2883 51.5475 23.2883 51.0658V47.8386H24.9712V50.8381C24.9712 51.2077 25.0669 51.4948 25.2583 51.6993C25.4496 51.9039 25.707 52.0062 26.0304 52.0062C26.3604 52.0062 26.6211 51.9039 26.8125 51.6993C27.0038 51.4948 27.0995 51.2077 27.0995 50.8381V47.8386H28.7923ZM31.701 48.6206C31.866 48.3633 32.0937 48.1554 32.3841 47.997C32.6745 47.8386 33.0143 47.7594 33.4037 47.7594C33.8591 47.7594 34.2715 47.8749 34.6411 48.1059C35.0107 48.3369 35.3011 48.6668 35.5123 49.0958C35.7301 49.5248 35.8389 50.0231 35.8389 50.5906C35.8389 51.1582 35.7301 51.6597 35.5123 52.0953C35.3011 52.5243 35.0107 52.8576 34.6411 53.0951C34.2715 53.3261 33.8591 53.4416 33.4037 53.4416C33.0209 53.4416 32.6811 53.3624 32.3841 53.204C32.0937 53.0456 31.866 52.8411 31.701 52.5903V55.9956H30.0082V47.8386H31.701V48.6206ZM34.1165 50.5906C34.1165 50.1682 33.9977 49.8383 33.7601 49.6007C33.5291 49.3565 33.242 49.2344 32.8988 49.2344C32.5623 49.2344 32.2752 49.3565 32.0376 49.6007C31.8066 49.8449 31.6911 50.1781 31.6911 50.6005C31.6911 51.0229 31.8066 51.3562 32.0376 51.6003C32.2752 51.8445 32.5623 51.9666 32.8988 51.9666C33.2354 51.9666 33.5225 51.8445 33.7601 51.6003C33.9977 51.3496 34.1165 51.013 34.1165 50.5906ZM38.9742 53.4416C38.4924 53.4416 38.0634 53.3591 37.6873 53.1941C37.3111 53.0291 37.0141 52.8048 36.7963 52.521C36.5785 52.2306 36.4564 51.9072 36.43 51.5508H38.103C38.1228 51.7422 38.2119 51.8973 38.3703 52.0161C38.5287 52.1349 38.7234 52.1943 38.9544 52.1943C39.1656 52.1943 39.3272 52.1547 39.4394 52.0755C39.5582 51.9897 39.6176 51.8808 39.6176 51.7488C39.6176 51.5904 39.5351 51.475 39.3701 51.4024C39.2052 51.3232 38.9379 51.2374 38.5683 51.145C38.1723 51.0526 37.8423 50.9569 37.5784 50.8579C37.3144 50.7523 37.0867 50.5906 36.8953 50.3728C36.7039 50.1484 36.6082 49.8482 36.6082 49.472C36.6082 49.1552 36.694 48.8681 36.8656 48.6107C37.0438 48.3468 37.3012 48.1389 37.6378 47.9871C37.9809 47.8353 38.3868 47.7594 38.8554 47.7594C39.5483 47.7594 40.0928 47.931 40.4888 48.2742C40.8913 48.6173 41.1223 49.0727 41.1817 49.6403H39.6176C39.5912 49.4489 39.5054 49.2971 39.3602 49.1849C39.2217 49.0727 39.0369 49.0166 38.8059 49.0166C38.6079 49.0166 38.4561 49.0562 38.3505 49.1354C38.2449 49.208 38.1921 49.3103 38.1921 49.4423C38.1921 49.6007 38.2746 49.7195 38.4396 49.7987C38.6112 49.8779 38.8752 49.9571 39.2316 50.0363C39.6407 50.1418 39.974 50.2474 40.2314 50.353C40.4888 50.452 40.7132 50.617 40.9045 50.848C41.1025 51.0724 41.2048 51.376 41.2114 51.7587C41.2114 52.0821 41.119 52.3725 40.9342 52.6299C40.756 52.8807 40.4954 53.0786 40.1522 53.2238C39.8156 53.369 39.4229 53.4416 38.9742 53.4416Z" fill="black"/>
<path d="M15.3592 14.2857C19.2452 14.2857 22.3904 11.0905 22.3904 7.14285C22.3904 3.19516 19.2452 1.52588e-05 15.3592 1.52588e-05C11.4732 1.52588e-05 8.32797 3.19516 8.32797 7.14285C8.32797 11.0905 11.4732 14.2857 15.3592 14.2857ZM20.1806 16.3265H19.6595C18.3538 16.9642 16.9036 17.3469 15.3592 17.3469C13.8148 17.3469 12.3709 16.9642 11.0588 16.3265H10.5378C6.54505 16.3265 3.30566 19.6173 3.30566 23.6734V25.5101C3.30566 27.2002 4.65541 28.5714 6.31905 28.5714H24.3994C26.063 28.5714 27.4127 27.2002 27.4127 25.5101V23.6734C27.4127 19.6173 24.1733 16.3265 20.1806 16.3265ZM33.4395 14.2857C36.7668 14.2857 39.4663 11.5433 39.4663 8.16326C39.4663 4.78316 36.7668 2.04083 33.4395 2.04083C30.1122 2.04083 27.4127 4.78316 27.4127 8.16326C27.4127 11.5433 30.1122 14.2857 33.4395 14.2857ZM36.4529 16.3265H36.2143C35.3417 16.6326 34.4189 16.8367 33.4395 16.8367C32.4602 16.8367 31.5373 16.6326 30.6647 16.3265H30.4261C29.1454 16.3265 27.9652 16.7028 26.9293 17.3086C28.4611 18.9859 29.4217 21.2117 29.4217 23.6734V26.1224C29.4217 26.2627 29.3903 26.3966 29.384 26.5305H40.4707C42.1344 26.5305 43.4841 25.1594 43.4841 23.4693C43.4841 19.5216 40.3389 16.3265 36.4529 16.3265Z" fill="black"/>
<path d="M101.384 47.1349H98.7903L98.3745 48.3624H96.6026L99.117 41.4131H101.077L103.591 48.3624H101.8L101.384 47.1349ZM100.948 45.8282L100.087 43.2841L99.2358 45.8282H100.948ZM109.653 43.6503C109.653 44.0529 109.561 44.4225 109.376 44.7591C109.191 45.089 108.907 45.3563 108.524 45.5609C108.142 45.7655 107.666 45.8678 107.099 45.8678H106.05V48.3624H104.357V41.4131H107.099C107.653 41.4131 108.122 41.5088 108.505 41.7002C108.887 41.8916 109.174 42.1555 109.366 42.4921C109.557 42.8287 109.653 43.2148 109.653 43.6503ZM106.97 44.5215C107.294 44.5215 107.534 44.4456 107.693 44.2938C107.851 44.142 107.93 43.9275 107.93 43.6503C107.93 43.3732 107.851 43.1587 107.693 43.0069C107.534 42.8551 107.294 42.7792 106.97 42.7792H106.05V44.5215H106.97ZM112.227 41.4131V48.3624H110.534V41.4131H112.227Z" fill="black"/>
<path d="M118.458 12.4107C118.715 11.7283 118.86 10.9821 118.86 10.2041C118.86 6.82397 116.16 4.08164 112.833 4.08164C111.596 4.08164 110.441 4.46429 109.487 5.1148C107.748 2.05358 104.502 1.52588e-05 100.779 1.52588e-05C95.2297 1.52588e-05 90.7347 4.56633 90.7347 10.2041C90.7347 10.3763 90.741 10.5485 90.7473 10.7206C87.2317 11.977 84.7079 15.3826 84.7079 19.3877C84.7079 24.4578 88.7572 28.5714 93.7481 28.5714H116.851C121.289 28.5714 124.886 24.917 124.886 20.4081C124.886 16.4604 122.124 13.1632 118.458 12.4107Z" fill="black"/>
<path d="M97.6248 19.7308L99.5244 14.0513H100.883L102.855 19.7598C103.132 19.8597 103.325 19.9757 103.435 20.1078L103.338 20.9296H101.023L100.921 20.1078C101.002 20.0047 101.161 19.9064 101.4 19.813L101.129 18.9816H99.1522L98.9009 19.7791C99.1329 19.8726 99.3053 19.9822 99.4181 20.1078L99.3166 20.9296H97.0592L96.9626 20.1078C97.085 19.9564 97.3058 19.8307 97.6248 19.7308ZM100.211 15.6029L100.201 15.4337H100.061C100.061 15.8333 99.9788 16.3021 99.8144 16.8403L99.4277 18.068H100.844L100.467 16.8596C100.316 16.3956 100.23 15.9767 100.211 15.6029ZM106.132 18.5514H105.687V19.7211C106.164 19.8275 106.464 19.9564 106.586 20.1078L106.485 20.9296H103.812L103.715 20.1078C103.802 19.9951 103.984 19.8855 104.261 19.7791V15.2548C103.987 15.1582 103.805 15.047 103.715 14.9213L103.812 14.0996H106.437C107.049 14.106 107.556 14.1802 107.959 14.3219C108.365 14.4605 108.668 14.6893 108.868 15.0083C109.068 15.3273 109.168 15.7608 109.168 16.3086C109.168 17.8038 108.156 18.5514 106.132 18.5514ZM106.277 15.1775H105.687V17.4735H106.35C106.797 17.4735 107.131 17.3849 107.35 17.2076C107.572 17.0272 107.684 16.7178 107.684 16.2796C107.684 15.8381 107.563 15.5449 107.321 15.3999C107.083 15.2516 106.735 15.1775 106.277 15.1775ZM109.719 14.9213L109.815 14.0996H112.135L112.232 14.9213C112.126 15.047 111.945 15.1582 111.691 15.2548V19.7791C111.945 19.8823 112.126 19.9918 112.232 20.1078L112.135 20.9296H109.815L109.719 20.1078C109.806 19.9951 109.988 19.8855 110.265 19.7791V15.2548C109.991 15.1582 109.809 15.047 109.719 14.9213Z" fill="white"/>
<path d="M588.7 43.3624H587.008L584.176 39.076V43.3624H582.484V36.4131H584.176L587.008 40.7193V36.4131H588.7V43.3624ZM595.134 40.5114C595.134 40.6698 595.125 40.8348 595.105 41.0064H591.274C591.3 41.3496 591.409 41.6135 591.6 41.7983C591.798 41.9765 592.039 42.0656 592.323 42.0656C592.745 42.0656 593.039 41.8874 593.204 41.5311H595.006C594.913 41.894 594.745 42.2207 594.501 42.5111C594.263 42.8015 593.963 43.0291 593.6 43.1941C593.237 43.3591 592.831 43.4416 592.382 43.4416C591.841 43.4416 591.36 43.3261 590.937 43.0951C590.515 42.8642 590.185 42.5342 589.947 42.1052C589.71 41.6762 589.591 41.1747 589.591 40.6005C589.591 40.0264 589.706 39.5248 589.937 39.0958C590.175 38.6668 590.505 38.3369 590.927 38.1059C591.35 37.8749 591.835 37.7594 592.382 37.7594C592.917 37.7594 593.392 37.8716 593.808 38.096C594.224 38.3204 594.547 38.6404 594.778 39.0562C595.016 39.472 595.134 39.9571 595.134 40.5114ZM593.402 40.0659C593.402 39.7756 593.303 39.5446 593.105 39.373C592.907 39.2014 592.66 39.1156 592.363 39.1156C592.079 39.1156 591.838 39.1981 591.64 39.3631C591.449 39.5281 591.33 39.7624 591.284 40.0659H593.402ZM599.106 41.927V43.3624H598.245C597.631 43.3624 597.153 43.2139 596.81 42.917C596.466 42.6134 596.295 42.1217 596.295 41.442V39.2443H595.622V37.8386H596.295V36.4923H597.988V37.8386H599.096V39.2443H597.988V41.4618C597.988 41.6267 598.027 41.7455 598.106 41.8181C598.186 41.8907 598.318 41.927 598.502 41.927H599.106ZM607.978 37.8386L606.484 43.3624H604.613L603.742 39.7789L602.841 43.3624H600.98L599.475 37.8386H601.168L601.95 41.7884L602.88 37.8386H604.672L605.613 41.7686L606.385 37.8386H607.978ZM611.138 43.4416C610.597 43.4416 610.109 43.3261 609.673 43.0951C609.244 42.8642 608.905 42.5342 608.654 42.1052C608.41 41.6762 608.287 41.1747 608.287 40.6005C608.287 40.033 608.413 39.5347 608.664 39.1057C608.914 38.6701 609.258 38.3369 609.693 38.1059C610.129 37.8749 610.617 37.7594 611.158 37.7594C611.699 37.7594 612.188 37.8749 612.623 38.1059C613.059 38.3369 613.402 38.6701 613.653 39.1057C613.904 39.5347 614.029 40.033 614.029 40.6005C614.029 41.1681 613.9 41.6696 613.643 42.1052C613.392 42.5342 613.046 42.8642 612.604 43.0951C612.168 43.3261 611.68 43.4416 611.138 43.4416ZM611.138 41.9765C611.462 41.9765 611.736 41.8577 611.96 41.6201C612.191 41.3826 612.307 41.0427 612.307 40.6005C612.307 40.1583 612.194 39.8185 611.97 39.5809C611.752 39.3433 611.482 39.2245 611.158 39.2245C610.828 39.2245 610.554 39.3433 610.337 39.5809C610.119 39.8119 610.01 40.1517 610.01 40.6005C610.01 41.0427 610.116 41.3826 610.327 41.6201C610.545 41.8577 610.815 41.9765 611.138 41.9765ZM616.62 38.7592C616.818 38.4557 617.065 38.2181 617.362 38.0465C617.659 37.8683 617.989 37.7792 618.352 37.7792V39.571H617.887C617.465 39.571 617.148 39.6634 616.937 39.8482C616.726 40.0264 616.62 40.3431 616.62 40.7985V43.3624H614.927V37.8386H616.62V38.7592ZM622.537 43.3624L620.854 41.046V43.3624H619.161V36.0369H620.854V40.0857L622.527 37.8386H624.616L622.319 40.6104L624.636 43.3624H622.537ZM577.184 46.4131L574.719 53.3624H572.601L570.136 46.4131H571.938L573.66 51.6597L575.392 46.4131H577.184ZM578.743 47.2644C578.446 47.2644 578.202 47.1786 578.01 47.0071C577.826 46.8289 577.733 46.6111 577.733 46.3537C577.733 46.0897 577.826 45.8719 578.01 45.7003C578.202 45.5222 578.446 45.4331 578.743 45.4331C579.033 45.4331 579.271 45.5222 579.456 45.7003C579.647 45.8719 579.743 46.0897 579.743 46.3537C579.743 46.6111 579.647 46.8289 579.456 47.0071C579.271 47.1786 579.033 47.2644 578.743 47.2644ZM579.584 47.8386V53.3624H577.892V47.8386H579.584ZM583.058 53.4416C582.577 53.4416 582.148 53.3591 581.771 53.1941C581.395 53.0291 581.098 52.8048 580.88 52.521C580.663 52.2306 580.541 51.9072 580.514 51.5508H582.187C582.207 51.7422 582.296 51.8973 582.454 52.0161C582.613 52.1349 582.808 52.1943 583.039 52.1943C583.25 52.1943 583.411 52.1547 583.524 52.0755C583.642 51.9897 583.702 51.8808 583.702 51.7488C583.702 51.5904 583.619 51.475 583.454 51.4024C583.289 51.3232 583.022 51.2374 582.652 51.145C582.256 51.0526 581.926 50.9569 581.663 50.8579C581.399 50.7523 581.171 50.5906 580.979 50.3728C580.788 50.1484 580.692 49.8482 580.692 49.472C580.692 49.1552 580.778 48.8681 580.95 48.6107C581.128 48.3468 581.385 48.1389 581.722 47.9871C582.065 47.8353 582.471 47.7594 582.94 47.7594C583.632 47.7594 584.177 47.931 584.573 48.2742C584.975 48.6173 585.206 49.0727 585.266 49.6403H583.702C583.675 49.4489 583.59 49.2971 583.444 49.1849C583.306 49.0727 583.121 49.0166 582.89 49.0166C582.692 49.0166 582.54 49.0562 582.435 49.1354C582.329 49.208 582.276 49.3103 582.276 49.4423C582.276 49.6007 582.359 49.7195 582.524 49.7987C582.695 49.8779 582.959 49.9571 583.316 50.0363C583.725 50.1418 584.058 50.2474 584.316 50.353C584.573 50.452 584.797 50.617 584.989 50.848C585.187 51.0724 585.289 51.376 585.296 51.7587C585.296 52.0821 585.203 52.3725 585.018 52.6299C584.84 52.8807 584.58 53.0786 584.236 53.2238C583.9 53.369 583.507 53.4416 583.058 53.4416ZM591.786 47.8386V53.3624H590.093V52.6101C589.921 52.8543 589.687 53.0522 589.39 53.204C589.1 53.3492 588.776 53.4218 588.42 53.4218C587.998 53.4218 587.625 53.3294 587.301 53.1446C586.978 52.9533 586.727 52.6794 586.549 52.323C586.371 51.9666 586.282 51.5475 586.282 51.0658V47.8386H587.965V50.8381C587.965 51.2077 588.06 51.4948 588.252 51.6993C588.443 51.9039 588.7 52.0062 589.024 52.0062C589.354 52.0062 589.614 51.9039 589.806 51.6993C589.997 51.4948 590.093 51.2077 590.093 50.8381V47.8386H591.786ZM592.665 50.5906C592.665 50.0231 592.771 49.5248 592.982 49.0958C593.2 48.6668 593.493 48.3369 593.863 48.1059C594.232 47.8749 594.645 47.7594 595.1 47.7594C595.49 47.7594 595.83 47.8386 596.12 47.997C596.417 48.1554 596.645 48.3633 596.803 48.6206V47.8386H598.496V53.3624H596.803V52.5804C596.638 52.8378 596.407 53.0456 596.11 53.204C595.82 53.3624 595.48 53.4416 595.09 53.4416C594.642 53.4416 594.232 53.3261 593.863 53.0951C593.493 52.8576 593.2 52.5243 592.982 52.0953C592.771 51.6597 592.665 51.1582 592.665 50.5906ZM596.803 50.6005C596.803 50.1781 596.684 49.8449 596.447 49.6007C596.216 49.3565 595.932 49.2344 595.595 49.2344C595.259 49.2344 594.972 49.3565 594.734 49.6007C594.503 49.8383 594.388 50.1682 594.388 50.5906C594.388 51.013 594.503 51.3496 594.734 51.6003C594.972 51.8445 595.259 51.9666 595.595 51.9666C595.932 51.9666 596.216 51.8445 596.447 51.6003C596.684 51.3562 596.803 51.0229 596.803 50.6005ZM601.413 46.0369V53.3624H599.72V46.0369H601.413ZM603.491 47.2644C603.194 47.2644 602.95 47.1786 602.759 47.0071C602.574 46.8289 602.482 46.6111 602.482 46.3537C602.482 46.0897 602.574 45.8719 602.759 45.7003C602.95 45.5222 603.194 45.4331 603.491 45.4331C603.782 45.4331 604.019 45.5222 604.204 45.7003C604.395 45.8719 604.491 46.0897 604.491 46.3537C604.491 46.6111 604.395 46.8289 604.204 47.0071C604.019 47.1786 603.782 47.2644 603.491 47.2644ZM604.333 47.8386V53.3624H602.64V47.8386H604.333ZM607.143 51.9666H609.539V53.3624H605.253V52.0161L607.549 49.2344H605.272V47.8386H609.49V49.1849L607.143 51.9666ZM610.134 50.5906C610.134 50.0231 610.24 49.5248 610.451 49.0958C610.668 48.6668 610.962 48.3369 611.332 48.1059C611.701 47.8749 612.114 47.7594 612.569 47.7594C612.959 47.7594 613.298 47.8386 613.589 47.997C613.886 48.1554 614.113 48.3633 614.272 48.6206V47.8386H615.965V53.3624H614.272V52.5804C614.107 52.8378 613.876 53.0456 613.579 53.204C613.289 53.3624 612.949 53.4416 612.559 53.4416C612.11 53.4416 611.701 53.3261 611.332 53.0951C610.962 52.8576 610.668 52.5243 610.451 52.0953C610.24 51.6597 610.134 51.1582 610.134 50.5906ZM614.272 50.6005C614.272 50.1781 614.153 49.8449 613.915 49.6007C613.684 49.3565 613.401 49.2344 613.064 49.2344C612.728 49.2344 612.44 49.3565 612.203 49.6007C611.972 49.8383 611.856 50.1682 611.856 50.5906C611.856 51.013 611.972 51.3496 612.203 51.6003C612.44 51.8445 612.728 51.9666 613.064 51.9666C613.401 51.9666 613.684 51.8445 613.915 51.6003C614.153 51.3562 614.272 51.0229 614.272 50.6005ZM620.268 51.927V53.3624H619.407C618.793 53.3624 618.315 53.2139 617.971 52.917C617.628 52.6134 617.457 52.1217 617.457 51.442V49.2443H616.783V47.8386H617.457V46.4923H619.149V47.8386H620.258V49.2443H619.149V51.4618C619.149 51.6267 619.189 51.7455 619.268 51.8181C619.347 51.8907 619.479 51.927 619.664 51.927H620.268ZM622.062 47.2644C621.765 47.2644 621.521 47.1786 621.33 47.0071C621.145 46.8289 621.052 46.6111 621.052 46.3537C621.052 46.0897 621.145 45.8719 621.33 45.7003C621.521 45.5222 621.765 45.4331 622.062 45.4331C622.353 45.4331 622.59 45.5222 622.775 45.7003C622.966 45.8719 623.062 46.0897 623.062 46.3537C623.062 46.6111 622.966 46.8289 622.775 47.0071C622.59 47.1786 622.353 47.2644 622.062 47.2644ZM622.904 47.8386V53.3624H621.211V47.8386H622.904ZM626.645 53.4416C626.104 53.4416 625.615 53.3261 625.18 53.0951C624.751 52.8642 624.411 52.5342 624.16 52.1052C623.916 51.6762 623.794 51.1747 623.794 50.6005C623.794 50.033 623.919 49.5347 624.17 49.1057C624.421 48.6701 624.764 48.3369 625.2 48.1059C625.635 47.8749 626.123 47.7594 626.665 47.7594C627.206 47.7594 627.694 47.8749 628.13 48.1059C628.565 48.3369 628.908 48.6701 629.159 49.1057C629.41 49.5347 629.535 50.033 629.535 50.6005C629.535 51.1681 629.407 51.6696 629.149 52.1052C628.899 52.5342 628.552 52.8642 628.11 53.0951C627.674 53.3261 627.186 53.4416 626.645 53.4416ZM626.645 51.9765C626.968 51.9765 627.242 51.8577 627.466 51.6201C627.697 51.3826 627.813 51.0427 627.813 50.6005C627.813 50.1583 627.701 49.8185 627.476 49.5809C627.259 49.3433 626.988 49.2245 626.665 49.2245C626.335 49.2245 626.061 49.3433 625.843 49.5809C625.625 49.8119 625.516 50.1517 625.516 50.6005C625.516 51.0427 625.622 51.3826 625.833 51.6201C626.051 51.8577 626.321 51.9765 626.645 51.9765ZM633.799 47.7792C634.446 47.7792 634.961 47.9904 635.344 48.4128C635.733 48.8285 635.928 49.4027 635.928 50.1352V53.3624H634.245V50.3629C634.245 49.9934 634.149 49.7063 633.958 49.5017C633.766 49.2971 633.509 49.1948 633.186 49.1948C632.862 49.1948 632.605 49.2971 632.413 49.5017C632.222 49.7063 632.126 49.9934 632.126 50.3629V53.3624H630.434V47.8386H632.126V48.5711C632.298 48.327 632.529 48.1356 632.819 47.997C633.11 47.8518 633.436 47.7792 633.799 47.7792Z" fill="black"/>
<circle cx="590.477" cy="6.17759" r="3.08879" transform="rotate(90 590.477 6.17759)" fill="black"/>
<circle cx="599.744" cy="3.08881" r="3.08879" transform="rotate(90 599.744 3.08881)" fill="black"/>
<circle cx="594.338" cy="16.2162" r="3.86099" transform="rotate(90 594.338 16.2162)" fill="black"/>
<circle cx="605.149" cy="14.6718" r="3.86099" transform="rotate(90 605.149 14.6718)" fill="black"/>
<circle cx="602.832" cy="23.9382" r="3.08879" transform="rotate(90 602.832 23.9382)" fill="black"/>
<circle cx="615.96" cy="13.8996" r="3.08879" transform="rotate(90 615.96 13.8996)" fill="black"/>
<circle cx="612.871" cy="24.7104" r="3.86099" transform="rotate(90 612.871 24.7104)" fill="black"/>
<line x1="605.898" y1="14.3773" x2="615.937" y2="13.6051" stroke="black" stroke-width="0.590639"/>
<line x1="605.435" y1="14.7434" x2="603.119" y2="24.0098" stroke="black" stroke-width="0.590639"/>
<line x1="613.411" y1="25.665" x2="604.917" y2="14.8542" stroke="black" stroke-width="0.590639"/>
<line x1="605.207" y1="14.1892" x2="593.624" y2="16.5058" stroke="black" stroke-width="0.590639"/>
<line x1="591.538" y1="5.34353" x2="593.855" y2="16.1543" stroke="black" stroke-width="0.590639"/>
<line x1="600.019" y1="2.42366" x2="594.613" y2="16.3232" stroke="black" stroke-width="0.590639"/>
</g>
</svg>
